<svg width="97" height="97" viewBox="0 0 97 97" fill="none" xmlns="http://www.w3.org/2000/svg">
<path d="M53.0195 48.0184C50.2581 48.0196 48.0186 45.7819 48.0174 43.0205L47.9991 0.0205135L90.9991 0.00221226C93.7605 0.00103697 96 2.23866 96.0012 5.00008L96.0195 48.0001L53.0195 48.0184Z" fill="#4C81D1"/>
<path d="M53.0391 96.0184C50.2776 96.0196 48.0381 93.7819 48.0369 91.0205L48.0208 53.0205C48.0196 50.2591 50.2572 48.0196 53.0186 48.0184L96.0186 48.0001L96.0369 91.0001C96.0381 93.7615 93.8005 96.001 91.0391 96.0022L53.0391 96.0184Z" fill="#275EBD"/>
<path d="M5.01953 48.0389C2.25811 48.0401 0.0185785 45.8024 0.0174032 43.041L0.00122998 5.04102C5.46846e-05 2.2796 2.23768 0.0400686 4.9991 0.0388933L47.9991 0.020592L48.0174 43.0206C48.0186 45.782 45.7809 48.0215 43.0195 48.0227L5.01953 48.0389Z" fill="#0E34A9"/>
</svg>
