<svg width="1341" height="1098" viewBox="0 0 1341 1098" fill="none" xmlns="http://www.w3.org/2000/svg">
<g id="No Internet">
<g id="circle">
<path id="Stroke 1" d="M42.4805 503.511V514.904" stroke="#275EBD" stroke-opacity="0.4" stroke-width="3.69778" stroke-linecap="round"/>
<g id="Group 8">
<path id="Stroke 2" d="M16.8867 509.684L26.1967 519.267" stroke="#275EBD" stroke-opacity="0.4" stroke-width="3.69778" stroke-linecap="round"/>
<path id="Stroke 4" d="M6 535.197H19.1642" stroke="#275EBD" stroke-opacity="0.4" stroke-width="3.69778" stroke-linecap="round"/>
<path id="Stroke 6" d="M15.8203 561.162L25.1303 551.578" stroke="#275EBD" stroke-opacity="0.4" stroke-width="3.69778" stroke-linecap="round"/>
</g>
<path id="Stroke 9" d="M42.4805 564.275V552.882" stroke="#275EBD" stroke-opacity="0.4" stroke-width="3.69778" stroke-linecap="round"/>
<path id="Stroke 10" d="M61.4667 556.679L53.8711 549.083" stroke="#275EBD" stroke-opacity="0.4" stroke-width="3.69778" stroke-linecap="round"/>
<path id="Stroke 11" d="M76.6551 537.691H65.2617" stroke="#275EBD" stroke-opacity="0.4" stroke-width="3.69778" stroke-linecap="round"/>
<path id="Stroke 12" d="M69.0604 511.106L61.4648 518.702" stroke="#275EBD" stroke-opacity="0.4" stroke-width="3.69778" stroke-linecap="round"/>
<path id="Stroke 13" d="M653.93 6V13.5956" stroke="#275EBD" stroke-opacity="0.4" stroke-width="3.69778" stroke-linecap="round"/>
<path id="Stroke 15" d="M631.137 28.7871H638.732" stroke="#275EBD" stroke-opacity="0.4" stroke-width="3.69778" stroke-linecap="round"/>
<path id="Stroke 16" d="M653.93 51.5731V43.9775" stroke="#275EBD" stroke-opacity="0.4" stroke-width="3.69778" stroke-linecap="round"/>
<path id="Stroke 17" d="M672.904 28.7871H665.309" stroke="#275EBD" stroke-opacity="0.4" stroke-width="3.69778" stroke-linecap="round"/>
<path id="Stroke 18" d="M213.387 325.014V336.407" stroke="#275EBD" stroke-opacity="0.4" stroke-width="3.69778" stroke-linecap="round"/>
<path id="Stroke 19" d="M179.191 359.194H190.585" stroke="#275EBD" stroke-opacity="0.4" stroke-width="3.69778" stroke-linecap="round"/>
<path id="Stroke 20" d="M213.387 389.576V378.183" stroke="#275EBD" stroke-opacity="0.4" stroke-width="3.69778" stroke-linecap="round"/>
<path id="Stroke 21" d="M243.764 359.194H232.371" stroke="#275EBD" stroke-opacity="0.4" stroke-width="3.69778" stroke-linecap="round"/>
<g id="Group 42">
<path id="Stroke 22" d="M1030.88 739.122C1039.96 739.122 1047.32 746.485 1047.32 755.563C1047.32 764.645 1039.96 772.004 1030.88 772.004C1021.81 772.004 1014.45 764.645 1014.45 755.563" stroke="#275EBD" stroke-opacity="0.4" stroke-width="3.69778" stroke-linecap="round"/>
<path id="Stroke 24" d="M1105.91 955.257C1107.94 969.435 1098.1 982.573 1083.93 984.605C1069.76 986.634 1056.62 976.791 1054.59 962.617C1052.56 948.443 1062.4 935.304 1076.57 933.272" stroke="#275EBD" stroke-opacity="0.4" stroke-width="3.69778" stroke-linecap="round"/>
<path id="Fill 26" fill-rule="evenodd" clip-rule="evenodd" d="M1106.12 589.96C1115.88 586.916 1130.84 574.98 1134.3 562.138C1137.44 573.49 1150.61 586.916 1162.49 587.932C1149.12 592.666 1136.33 606.73 1134.3 617.779C1132.92 606.518 1115.24 591.602 1106.12 589.96Z" fill="#275EBD" fill-opacity="0.4"/>
<path id="Fill 28" fill-rule="evenodd" clip-rule="evenodd" d="M104.297 734.056C109.178 732.534 116.655 726.567 118.386 720.146C119.957 725.819 126.537 732.534 132.476 733.043C125.792 735.407 119.402 742.441 118.386 747.965C117.697 742.335 108.856 734.875 104.297 734.056Z" fill="#EBECEE"/>
<path id="Fill 30" fill-rule="evenodd" clip-rule="evenodd" d="M194.885 205.753C194.885 212.797 189.178 218.502 182.14 218.502C175.098 218.502 169.395 212.797 169.395 205.753C169.395 198.713 175.098 193.005 182.14 193.005C189.178 193.005 194.885 198.713 194.885 205.753Z" fill="#275EBD" fill-opacity="0.4"/>
<path id="Fill 32" fill-rule="evenodd" clip-rule="evenodd" d="M947.529 1006.18C947.529 1017.95 937.989 1027.49 926.227 1027.49C914.459 1027.49 904.922 1017.95 904.922 1006.18C904.922 994.411 914.459 984.872 926.227 984.872C937.989 984.872 947.529 994.411 947.529 1006.18Z" fill="#275EBD" fill-opacity="0.4"/>
<path id="Fill 34" fill-rule="evenodd" clip-rule="evenodd" d="M1341.02 182.254C1341.02 191.59 1333.46 199.156 1324.12 199.156C1314.79 199.156 1307.23 191.59 1307.23 182.254C1307.23 172.917 1314.79 165.352 1324.12 165.352C1333.46 165.352 1341.02 172.917 1341.02 182.254Z" fill="#275EBD" fill-opacity="0.4"/>
<path id="Stroke 36" fill-rule="evenodd" clip-rule="evenodd" d="M433.064 971.657C433.064 977.543 428.295 982.313 422.411 982.313C416.53 982.313 411.762 977.543 411.762 971.657C411.762 965.772 416.53 961.002 422.411 961.002C428.295 961.002 433.064 965.772 433.064 971.657Z" stroke="#275EBD" stroke-opacity="0.4" stroke-width="3.69778" stroke-linecap="round"/>
<path id="Stroke 38" fill-rule="evenodd" clip-rule="evenodd" d="M426.74 123.852C426.74 130.896 421.033 136.601 413.995 136.601C406.957 136.601 401.25 130.896 401.25 123.852C401.25 116.812 406.957 111.104 413.995 111.104C421.033 111.104 426.74 116.812 426.74 123.852Z" stroke="#275EBD" stroke-opacity="0.4" stroke-width="3.69778" stroke-linecap="round"/>
<path id="Stroke 40" fill-rule="evenodd" clip-rule="evenodd" d="M751.846 1089.65C743.702 1092.75 734.587 1088.65 731.489 1080.51C728.39 1072.37 732.479 1063.24 740.626 1060.15C748.767 1057.05 757.882 1061.14 760.98 1069.29C764.082 1077.43 759.99 1086.55 751.846 1089.65Z" stroke="#275EBD" stroke-opacity="0.4" stroke-width="3.69778" stroke-linecap="round"/>
</g>
</g>
<path id="Fill 1" fill-rule="evenodd" clip-rule="evenodd" d="M528.574 826.152H601.416L563.259 947.556L733.23 775.858H630.898L688.135 524.372L528.574 826.152Z" fill="url(#paint0_linear_747_3474)"/>
<g id="Group 6">
<path id="Fill 2" fill-rule="evenodd" clip-rule="evenodd" d="M964.336 448.061C946.376 435.3 925.409 426.505 902.687 422.995C890.257 314.405 798.073 230.071 686.155 230.071C616.413 230.071 554.334 262.839 514.427 313.816C500.424 309.126 485.476 306.566 469.89 306.566C398.332 306.566 339.322 360.206 330.804 429.467C271.585 447.825 228.586 503.034 228.586 568.272C228.586 648.292 293.262 713.185 373.206 713.561C377.323 714.115 381.508 714.438 385.777 714.438H860.945C869.718 716.083 878.719 716.979 887.966 716.979C968.229 716.979 1033.27 651.926 1033.27 571.675C1033.27 519.44 1005.7 473.666 964.336 448.061Z" fill="#F1F2F7"/>
<path id="Fill 4" fill-rule="evenodd" clip-rule="evenodd" d="M560.399 365.757C543.584 358.934 524.871 355.103 505.146 355.103C432.098 355.103 372.902 407.244 372.902 471.552C372.902 478.057 373.522 484.425 374.692 490.628C431.486 410.398 470.622 378.535 560.399 365.757Z" fill="#DCE1E7"/>
</g>
</g>
<defs>
<linearGradient id="paint0_linear_747_3474" x1="972.53" y1="95.2488" x2="325.005" y2="223.065" gradientUnits="userSpaceOnUse">
<stop stop-color="#A7C8E8"/>
<stop offset="1" stop-color="#206BC4"/>
</linearGradient>
</defs>
</svg>
