<svg width="54" height="55" viewBox="0 0 54 55" fill="none" xmlns="http://www.w3.org/2000/svg">
<rect width="54" height="54.9666" rx="4" fill="#99C6EF"/>
<path d="M42 13.0916C42 13.3927 41.8995 13.6437 41.6985 13.8444C41.4975 14.0452 41.2462 14.1455 40.9447 14.1455H17.3518C17.0503 14.1455 16.799 14.0452 16.598 13.8444C16.397 13.6437 16.2965 13.3927 16.2965 13.0916C16.2965 12.7905 16.397 12.5333 16.598 12.32C16.799 12.1067 17.0503 12 17.3518 12H40.9447C41.2462 12 41.4975 12.1067 41.6985 12.32C41.8995 12.5333 42 12.7905 42 13.0916ZM13.0553 18.4366C12.7538 18.4366 12.5025 18.5433 12.3015 18.7566C12.1005 18.9699 12 19.2146 12 19.4906V28.0728C12 28.3739 12.1005 28.6248 12.3015 28.8256C12.5025 29.0263 12.7538 29.1267 13.0553 29.1267C13.3568 29.1267 13.6143 29.0263 13.8279 28.8256C14.0415 28.6248 14.1482 28.3739 14.1482 28.0728V19.4906C14.1482 19.2146 14.0415 18.9699 13.8279 18.7566C13.6143 18.5433 13.3568 18.4366 13.0553 18.4366ZM12 32.3639C12 32.0627 12.1005 31.8055 12.3015 31.5922C12.5025 31.3789 12.7538 31.2723 13.0553 31.2723C13.3568 31.2723 13.6143 31.3789 13.8279 31.5922C14.0415 31.8055 14.1482 32.0627 14.1482 32.3639V40.9084C14.1482 41.2095 14.0415 41.4668 13.8279 41.6801C13.6143 41.8934 13.3568 42 13.0553 42C12.7538 42 12.5025 41.8934 12.3015 41.6801C12.1005 41.4668 12 41.2095 12 40.9084V32.3639ZM16.2965 21.6361C16.2965 20.7578 16.6106 20.005 17.2387 19.3777C17.8668 18.7503 18.6206 18.4366 19.5 18.4366H38.7965C39.6759 18.4366 40.4296 18.7503 41.0578 19.3777C41.6859 20.005 42 20.7578 42 21.6361V25.9272C42 26.8055 41.6859 27.5583 41.0578 28.1857C40.4296 28.813 39.6759 29.1267 38.7965 29.1267H19.5C18.6206 29.1267 17.8668 28.813 17.2387 28.1857C16.6106 27.5583 16.2965 26.8055 16.2965 25.9272V21.6361ZM19.5 20.5822C19.1985 20.5822 18.941 20.6888 18.7274 20.9021C18.5138 21.1154 18.407 21.3601 18.407 21.6361V25.9272C18.407 26.2284 18.5138 26.4856 18.7274 26.6989C18.941 26.9122 19.1985 27.0188 19.5 27.0188H38.7965C39.098 27.0188 39.3492 26.9122 39.5503 26.6989C39.7513 26.4856 39.8518 26.2284 39.8518 25.9272V21.6361C39.8518 21.3601 39.7513 21.1154 39.5503 20.9021C39.3492 20.6888 39.098 20.5822 38.7965 20.5822H19.5ZM19.5 31.2723C18.6206 31.2723 17.8668 31.5859 17.2387 32.2133C16.6106 32.8407 16.2965 33.606 16.2965 34.5094V38.7629C16.2965 39.6662 16.6106 40.4316 17.2387 41.059C17.8668 41.6863 18.6206 42 19.5 42H32.3518C33.2563 42 34.0226 41.6863 34.6508 41.059C35.2789 40.4316 35.593 39.6662 35.593 38.7629V34.5094C35.593 33.606 35.2789 32.8407 34.6508 32.2133C34.0226 31.5859 33.2563 31.2723 32.3518 31.2723H19.5ZM18.407 34.5094C18.407 34.2083 18.5138 33.9511 18.7274 33.7378C18.941 33.5245 19.1985 33.4178 19.5 33.4178H32.3518C32.6533 33.4178 32.9108 33.5245 33.1244 33.7378C33.3379 33.9511 33.4447 34.2083 33.4447 34.5094V38.7629C33.4447 39.064 33.3379 39.3212 33.1244 39.5345C32.9108 39.7478 32.6533 39.8545 32.3518 39.8545H19.5C19.1985 39.8545 18.941 39.7478 18.7274 39.5345C18.5138 39.3212 18.407 39.064 18.407 38.7629V34.5094Z" fill="black"/>
</svg>
