<svg width="287" height="228" viewBox="0 0 287 228" fill="none" xmlns="http://www.w3.org/2000/svg">
<circle cx="146.802" cy="100.22" r="100.22" fill="url(#paint0_linear_1241_4685)"/>
<circle cx="41.5728" cy="25.0552" r="10.022" fill="url(#paint1_linear_1241_4685)"/>
<circle cx="257.044" cy="157.846" r="7.51648" fill="url(#paint2_linear_1241_4685)"/>
<circle cx="40.3204" cy="172.879" r="12.5275" fill="url(#paint3_linear_1241_4685)"/>
<circle cx="272.078" cy="47.6046" r="12.5275" fill="url(#paint4_linear_1241_4685)"/>
<circle cx="248.273" cy="13.7805" r="8.76923" fill="url(#paint5_linear_1241_4685)"/>
<g filter="url(#filter0_dd_1241_4685)">
<path d="M79.252 155.608L144.96 124.968C148.259 123.43 149.687 119.508 148.148 116.209L109.344 32.9924L83.0668 23.4284L29.3055 48.4977C26.0064 50.0361 24.5791 53.9576 26.1175 57.2567L70.493 152.42C72.0314 155.719 75.9529 157.147 79.252 155.608Z" fill="url(#paint6_linear_1241_4685)"/>
<path d="M83.0703 23.4282L109.347 32.9922L91.4267 41.3486L83.0703 23.4282Z" fill="#D0D5DD"/>
</g>
<g filter="url(#filter1_dd_1241_4685)">
<path d="M110.661 133.217H183.162C186.802 133.217 189.753 130.266 189.753 126.626V34.8062L169.98 15.0332H110.661C107.021 15.0332 104.07 17.9841 104.07 21.6242V126.626C104.07 130.266 107.021 133.217 110.661 133.217Z" fill="url(#paint7_linear_1241_4685)"/>
<path d="M169.984 15.0332L189.757 34.8062H169.984V15.0332Z" fill="#D0D5DD"/>
</g>
<g filter="url(#filter2_dd_1241_4685)">
<path d="M147.949 124.929L213.657 155.569C216.956 157.108 220.878 155.681 222.416 152.381L261.221 69.1648L251.657 42.888L197.895 17.8187C194.596 16.2803 190.675 17.7076 189.136 21.0067L144.761 116.17C143.223 119.469 144.65 123.391 147.949 124.929Z" fill="url(#paint8_linear_1241_4685)"/>
<path d="M251.656 42.8877L261.22 69.1645L243.3 60.8081L251.656 42.8877Z" fill="#D0D5DD"/>
</g>
<g filter="url(#filter3_b_1241_4685)">
<rect x="111.727" y="110.242" width="70.1538" height="70.1538" rx="35.0769" fill="url(#paint9_linear_1241_4685)"/>
<g clip-path="url(#clip0_1241_4685)">
<path d="M152.65 151.165L146.803 145.319M146.803 145.319L140.957 151.165M146.803 145.319V158.473M159.066 154.658C160.491 153.881 161.617 152.651 162.266 151.163C162.915 149.675 163.05 148.013 162.65 146.439C162.249 144.866 161.336 143.471 160.055 142.474C158.773 141.477 157.196 140.935 155.573 140.934H153.731C153.289 139.223 152.464 137.634 151.32 136.288C150.175 134.941 148.74 133.872 147.122 133.16C145.505 132.447 143.747 132.111 141.981 132.176C140.214 132.241 138.486 132.706 136.925 133.535C135.364 134.365 134.012 135.537 132.969 136.964C131.927 138.391 131.222 140.036 130.906 141.775C130.591 143.514 130.674 145.302 131.149 147.004C131.624 148.707 132.479 150.279 133.65 151.603" stroke="white" stroke-width="2.92308" stroke-linecap="round" stroke-linejoin="round"/>
</g>
</g>
<g clip-path="url(#clip1_1241_4685)">
<path d="M232.564 59.146H71.3209C69.1456 59.1473 67.0597 60.0121 65.5215 61.5503C63.9833 63.0885 63.1185 65.1744 63.1172 67.3497V215.292C63.1185 217.467 63.9833 219.553 65.5215 221.091C67.0597 222.629 69.1456 223.494 71.3209 223.495H232.564C234.739 223.494 236.826 222.63 238.364 221.091C239.902 219.553 240.767 217.467 240.769 215.292V67.3497C240.767 65.1742 239.902 63.0882 238.364 61.55C236.826 60.0118 234.739 59.1471 232.564 59.146Z" fill="#C6C6C6"/>
<path d="M221.946 172.086H81.9342C77.4037 172.086 73.7305 168.413 73.7305 163.883V33.1681C73.7305 28.6376 77.4037 24.9644 81.9342 24.9644H221.946C226.477 24.9644 230.15 28.6376 230.15 33.1681V163.883C230.15 168.413 226.477 172.086 221.946 172.086Z" fill="#F9F9F9"/>
<path d="M76.3278 166.479V35.7654C76.3278 31.2349 80.001 27.5617 84.5316 27.5617H224.543C226.144 27.5617 227.631 28.0268 228.893 28.8189C227.442 26.5062 224.877 24.9644 221.946 24.9644H81.9342C77.4037 24.9644 73.7305 28.6376 73.7305 33.1681V163.883C73.7305 166.814 75.2723 169.379 77.585 170.83C76.7929 169.568 76.3278 168.08 76.3278 166.48V166.479Z" fill="url(#paint10_linear_1241_4685)"/>
<path d="M204.725 52.5825H99.168V58.5981H204.725V52.5825ZM204.725 75.552H99.168V81.5676H204.725V75.552ZM204.725 98.5266H99.168V104.542H204.725V98.5266ZM204.725 121.496H99.168V127.512H204.725V121.496Z" fill="#1162D7"/>
<path d="M111.746 102.079L138.271 128.605H111.746V102.079Z" fill="url(#paint11_linear_1241_4685)"/>
<path d="M240.768 130.793V69.7624L230.152 59.146V130.792H240.768V130.793Z" fill="#C6C6C6"/>
<path d="M253.203 136.314L241.766 217.277C241.194 221.325 237.73 224.333 233.643 224.333H70.2435C66.1561 224.333 62.6921 221.325 62.1203 217.277L46.6641 107.876C45.9669 102.937 49.7994 98.5244 54.7874 98.5244H105.248C109.336 98.5244 112.8 101.533 113.372 105.579L115.397 119.906C115.969 123.954 119.433 126.962 123.52 126.962H245.081C250.068 126.962 253.901 131.375 253.204 136.314H253.203Z" fill="url(#paint12_linear_1241_4685)"/>
<path d="M212.679 188.22H91.2076C90.5418 188.22 89.8989 187.977 89.3994 187.536C88.8999 187.096 88.5781 186.489 88.4942 185.828L86.9744 173.796C86.9261 173.411 86.9602 173.02 87.0745 172.649C87.1888 172.278 87.3806 171.936 87.6372 171.645C87.8938 171.354 88.2093 171.121 88.5628 170.961C88.9164 170.802 89.2999 170.719 89.6878 170.719H214.199C214.587 170.719 214.97 170.802 215.324 170.961C215.677 171.121 215.993 171.354 216.249 171.645C216.506 171.936 216.698 172.278 216.812 172.649C216.926 173.02 216.96 173.411 216.912 173.796L215.392 185.828C215.308 186.489 214.986 187.096 214.487 187.536C213.987 187.977 213.345 188.22 212.679 188.22Z" fill="url(#paint13_linear_1241_4685)"/>
</g>
<defs>
<filter id="filter0_dd_1241_4685" x="-1.72291" y="15.0718" width="177.711" height="193.432" filterUnits="userSpaceOnUse" color-interpolation-filters="sRGB">
<feFlood flood-opacity="0" result="BackgroundImageFix"/>
<feColorMatrix in="SourceAlpha" type="matrix" values="0 0 0 0 0 0 0 0 0 0 0 0 0 0 0 0 0 0 127 0" result="hardAlpha"/>
<feMorphology radius="5.01099" operator="erode" in="SourceAlpha" result="effect1_dropShadow_1241_4685"/>
<feOffset dy="10.022"/>
<feGaussianBlur stdDeviation="5.01099"/>
<feColorMatrix type="matrix" values="0 0 0 0 0.0627451 0 0 0 0 0.0941176 0 0 0 0 0.156863 0 0 0 0.03 0"/>
<feBlend mode="normal" in2="BackgroundImageFix" result="effect1_dropShadow_1241_4685"/>
<feColorMatrix in="SourceAlpha" type="matrix" values="0 0 0 0 0 0 0 0 0 0 0 0 0 0 0 0 0 0 127 0" result="hardAlpha"/>
<feMorphology radius="5.01099" operator="erode" in="SourceAlpha" result="effect2_dropShadow_1241_4685"/>
<feOffset dy="25.0549"/>
<feGaussianBlur stdDeviation="15.033"/>
<feColorMatrix type="matrix" values="0 0 0 0 0.0627451 0 0 0 0 0.0941176 0 0 0 0 0.156863 0 0 0 0.08 0"/>
<feBlend mode="normal" in2="effect1_dropShadow_1241_4685" result="effect2_dropShadow_1241_4685"/>
<feBlend mode="normal" in="SourceGraphic" in2="effect2_dropShadow_1241_4685" result="shape"/>
</filter>
<filter id="filter1_dd_1241_4685" x="79.0154" y="15.0332" width="135.797" height="168.293" filterUnits="userSpaceOnUse" color-interpolation-filters="sRGB">
<feFlood flood-opacity="0" result="BackgroundImageFix"/>
<feColorMatrix in="SourceAlpha" type="matrix" values="0 0 0 0 0 0 0 0 0 0 0 0 0 0 0 0 0 0 127 0" result="hardAlpha"/>
<feMorphology radius="5.01099" operator="erode" in="SourceAlpha" result="effect1_dropShadow_1241_4685"/>
<feOffset dy="10.022"/>
<feGaussianBlur stdDeviation="5.01099"/>
<feColorMatrix type="matrix" values="0 0 0 0 0.0627451 0 0 0 0 0.0941176 0 0 0 0 0.156863 0 0 0 0.03 0"/>
<feBlend mode="normal" in2="BackgroundImageFix" result="effect1_dropShadow_1241_4685"/>
<feColorMatrix in="SourceAlpha" type="matrix" values="0 0 0 0 0 0 0 0 0 0 0 0 0 0 0 0 0 0 127 0" result="hardAlpha"/>
<feMorphology radius="5.01099" operator="erode" in="SourceAlpha" result="effect2_dropShadow_1241_4685"/>
<feOffset dy="25.0549"/>
<feGaussianBlur stdDeviation="15.033"/>
<feColorMatrix type="matrix" values="0 0 0 0 0.0627451 0 0 0 0 0.0941176 0 0 0 0 0.156863 0 0 0 0.08 0"/>
<feBlend mode="normal" in2="effect1_dropShadow_1241_4685" result="effect2_dropShadow_1241_4685"/>
<feBlend mode="normal" in="SourceGraphic" in2="effect2_dropShadow_1241_4685" result="shape"/>
</filter>
<filter id="filter2_dd_1241_4685" x="116.922" y="15.0332" width="177.711" height="193.432" filterUnits="userSpaceOnUse" color-interpolation-filters="sRGB">
<feFlood flood-opacity="0" result="BackgroundImageFix"/>
<feColorMatrix in="SourceAlpha" type="matrix" values="0 0 0 0 0 0 0 0 0 0 0 0 0 0 0 0 0 0 127 0" result="hardAlpha"/>
<feMorphology radius="5.01099" operator="erode" in="SourceAlpha" result="effect1_dropShadow_1241_4685"/>
<feOffset dy="10.022"/>
<feGaussianBlur stdDeviation="5.01099"/>
<feColorMatrix type="matrix" values="0 0 0 0 0.0627451 0 0 0 0 0.0941176 0 0 0 0 0.156863 0 0 0 0.03 0"/>
<feBlend mode="normal" in2="BackgroundImageFix" result="effect1_dropShadow_1241_4685"/>
<feColorMatrix in="SourceAlpha" type="matrix" values="0 0 0 0 0 0 0 0 0 0 0 0 0 0 0 0 0 0 127 0" result="hardAlpha"/>
<feMorphology radius="5.01099" operator="erode" in="SourceAlpha" result="effect2_dropShadow_1241_4685"/>
<feOffset dy="25.0549"/>
<feGaussianBlur stdDeviation="15.033"/>
<feColorMatrix type="matrix" values="0 0 0 0 0.0627451 0 0 0 0 0.0941176 0 0 0 0 0.156863 0 0 0 0.08 0"/>
<feBlend mode="normal" in2="effect1_dropShadow_1241_4685" result="effect2_dropShadow_1241_4685"/>
<feBlend mode="normal" in="SourceGraphic" in2="effect2_dropShadow_1241_4685" result="shape"/>
</filter>
<filter id="filter3_b_1241_4685" x="103.727" y="102.242" width="86.1523" height="86.1538" filterUnits="userSpaceOnUse" color-interpolation-filters="sRGB">
<feFlood flood-opacity="0" result="BackgroundImageFix"/>
<feGaussianBlur in="BackgroundImageFix" stdDeviation="4"/>
<feComposite in2="SourceAlpha" operator="in" result="effect1_backgroundBlur_1241_4685"/>
<feBlend mode="normal" in="SourceGraphic" in2="effect1_backgroundBlur_1241_4685" result="shape"/>
</filter>
<linearGradient id="paint0_linear_1241_4685" x1="97.3183" y1="16.2857" x2="223.846" y2="52.6154" gradientUnits="userSpaceOnUse">
<stop stop-color="#206BC4"/>
<stop offset="1" stop-color="#99C6EF"/>
</linearGradient>
<linearGradient id="paint1_linear_1241_4685" x1="41.5728" y1="15.0332" x2="41.5728" y2="35.0772" gradientUnits="userSpaceOnUse">
<stop stop-color="#275EBD"/>
<stop offset="1" stop-color="#6898C3"/>
</linearGradient>
<linearGradient id="paint2_linear_1241_4685" x1="257.044" y1="150.33" x2="257.044" y2="165.363" gradientUnits="userSpaceOnUse">
<stop stop-color="#99C6EF"/>
<stop offset="1" stop-color="#6898C3"/>
</linearGradient>
<linearGradient id="paint3_linear_1241_4685" x1="40.3204" y1="160.352" x2="31.5512" y2="191.67" gradientUnits="userSpaceOnUse">
<stop stop-color="#275EBD"/>
<stop offset="1" stop-color="#A7C8E8"/>
</linearGradient>
<linearGradient id="paint4_linear_1241_4685" x1="254.54" y1="47.6046" x2="279.595" y2="45.0991" gradientUnits="userSpaceOnUse">
<stop stop-color="#A7C8E8"/>
<stop offset="1" stop-color="#206BC4"/>
</linearGradient>
<linearGradient id="paint5_linear_1241_4685" x1="250.152" y1="10.6486" x2="239.504" y2="17.5387" gradientUnits="userSpaceOnUse">
<stop stop-color="#6898C3"/>
<stop offset="1" stop-color="#206BC4"/>
</linearGradient>
<linearGradient id="paint6_linear_1241_4685" x1="75.3916" y1="155.865" x2="23.0274" y2="61.3957" gradientUnits="userSpaceOnUse">
<stop stop-color="#E4E7EC"/>
<stop offset="1" stop-color="#F9FAFB"/>
</linearGradient>
<linearGradient id="paint7_linear_1241_4685" x1="107.054" y1="131.818" x2="99.5205" y2="24.0694" gradientUnits="userSpaceOnUse">
<stop stop-color="#E4E7EC"/>
<stop offset="1" stop-color="#F9FAFB"/>
</linearGradient>
<linearGradient id="paint8_linear_1241_4685" x1="145.271" y1="122.137" x2="183.979" y2="21.3" gradientUnits="userSpaceOnUse">
<stop stop-color="#E4E7EC"/>
<stop offset="1" stop-color="#F9FAFB"/>
</linearGradient>
<linearGradient id="paint9_linear_1241_4685" x1="146.803" y1="75.1648" x2="76.6496" y2="145.319" gradientUnits="userSpaceOnUse">
<stop stop-color="#FF8960"/>
<stop offset="1" stop-color="#FF62A5"/>
</linearGradient>
<linearGradient id="paint10_linear_1241_4685" x1="156.751" y1="103.327" x2="53.0008" y2="-0.423736" gradientUnits="userSpaceOnUse">
<stop stop-color="#1162D7"/>
</linearGradient>
<linearGradient id="paint11_linear_1241_4685" x1="129.271" y1="132.861" x2="97.2091" y2="100.8" gradientUnits="userSpaceOnUse">
<stop stop-color="#C2CECE" stop-opacity="0"/>
<stop offset="0.179" stop-color="#AFBCBC" stop-opacity="0.179"/>
<stop offset="1" stop-color="#5B6A6A"/>
</linearGradient>
<linearGradient id="paint12_linear_1241_4685" x1="149.934" y1="98.5244" x2="149.934" y2="224.333" gradientUnits="userSpaceOnUse">
<stop stop-color="#EEF0F4"/>
<stop offset="0.927" stop-color="#E4E4E4"/>
</linearGradient>
<linearGradient id="paint13_linear_1241_4685" x1="250" y1="171" x2="75" y2="179" gradientUnits="userSpaceOnUse">
<stop stop-color="#A7C8E8"/>
<stop offset="1" stop-color="#275EBD"/>
</linearGradient>
<clipPath id="clip0_1241_4685">
<rect width="35.0769" height="35.0769" fill="white" transform="translate(129.266 127.78)"/>
</clipPath>
<clipPath id="clip1_1241_4685">
<rect width="206.703" height="206.703" fill="white" transform="translate(46.582 21.2969)"/>
</clipPath>
</defs>
</svg>
