<svg width="1116" height="1107" viewBox="0 0 1116 1107" fill="none" xmlns="http://www.w3.org/2000/svg">
<g id="No Upcoming Trips">
<g id="Group 3">
<mask id="mask0_747_2772" style="mask-type:luminance" maskUnits="userSpaceOnUse" x="103" y="239" width="934" height="534">
<path id="Clip 2" fill-rule="evenodd" clip-rule="evenodd" d="M333.968 334.05H214.379C198.839 334.05 186.13 346.801 186.13 362.39C186.13 377.979 198.839 390.73 214.379 390.73H275.239H293.075C308.614 390.73 321.324 403.486 321.324 419.074C321.324 426.865 318.139 433.965 313.017 439.083C307.916 444.226 300.836 447.419 293.075 447.419H255.024H234.016H131.515C115.975 447.419 103.266 460.174 103.266 475.759C103.266 491.343 115.975 504.099 131.515 504.099H204.895C182.742 556.33 170.475 613.799 170.475 674.155C170.475 696.052 172.094 717.572 175.2 738.601C176.497 747.387 178.062 756.098 179.892 764.715C233.189 756.536 289.725 749.956 348.747 745.156L353.187 749.221L357.368 744.479C428.278 738.944 502.703 735.994 579.466 735.994C742.558 735.994 895.175 749.295 1025.67 772.422C1030.7 750.547 1034.09 728.039 1035.69 705.027C1036.42 694.825 1036.78 684.527 1036.78 674.155C1036.78 434.135 842.861 239.575 603.63 239.575C501.67 239.575 407.959 274.921 333.968 334.05Z" fill="white"/>
</mask>
<g mask="url(#mask0_747_2772)">
<path id="Fill 1" fill-rule="evenodd" clip-rule="evenodd" d="M82.6172 793.075H1057.44V218.922H82.6172V793.075Z" fill="#F1F2F7"/>
</g>
</g>
<g id="Group 6">
<mask id="mask1_747_2772" style="mask-type:luminance" maskUnits="userSpaceOnUse" x="0" y="446" width="75" height="58">
<path id="Clip 5" fill-rule="evenodd" clip-rule="evenodd" d="M28.6126 446.105C12.8751 446.105 0 459.12 0 475.019C0 490.918 12.8751 503.933 28.6126 503.933H45.734C61.4757 503.933 74.3507 490.918 74.3507 475.019C74.3507 459.12 61.4757 446.105 45.734 446.105H28.6126Z" fill="white"/>
</mask>
<g mask="url(#mask1_747_2772)">
<path id="Fill 4" fill-rule="evenodd" clip-rule="evenodd" d="M-20.6484 524.586H95.0083V425.452H-20.6484V524.586Z" fill="#F1F2F7"/>
</g>
</g>
<g id="Group 9">
<mask id="mask2_747_2772" style="mask-type:luminance" maskUnits="userSpaceOnUse" x="179" y="736" width="936" height="372">
<path id="Clip 8" fill-rule="evenodd" clip-rule="evenodd" d="M356.723 745.049L352.539 749.762L348.099 745.722C289.093 750.493 232.574 757.024 179.285 765.157C220.802 960.46 394.7 1107 602.919 1107C700.414 1107 790.374 1074.86 862.771 1020.63H939.836C955.367 1020.63 968.076 1007.96 968.076 992.472C968.076 984.739 964.892 977.676 959.774 972.591C954.669 967.482 947.589 964.31 939.836 964.31H906.32C890.785 964.31 878.075 951.637 878.075 936.147C878.075 928.411 881.26 921.351 886.377 916.262C891.483 911.153 898.563 907.985 906.32 907.985H1086.72C1102.25 907.985 1114.96 895.312 1114.96 879.818C1114.96 872.082 1111.77 865.022 1106.65 859.938C1101.53 854.828 1094.49 851.656 1086.72 851.656H998.259C1009.56 826.554 1018.52 800.193 1024.86 772.819C894.399 749.841 741.819 736.619 578.763 736.619C502.021 736.619 427.608 739.547 356.723 745.049Z" fill="white"/>
</mask>
<g mask="url(#mask2_747_2772)">
<path id="Fill 7" fill-rule="evenodd" clip-rule="evenodd" d="M158.637 1127.65H1135.61V715.966H158.637V1127.65Z" fill="#E8EBF2"/>
</g>
</g>
<g id="Group 12">
<mask id="mask3_747_2772" style="mask-type:luminance" maskUnits="userSpaceOnUse" x="355" y="685" width="678" height="88">
<path id="Clip 11" fill-rule="evenodd" clip-rule="evenodd" d="M949.106 740.634L905.495 700.662L858.828 735.301L839.265 708.349L762.04 735.301L584.139 708.349L480.73 736.9C512.349 735.842 544.477 735.301 577.03 735.301C739.904 735.301 892.323 748.854 1022.64 772.423C1027.66 750.126 1031.05 727.193 1032.65 703.743L1017.88 685.68L949.106 740.634ZM355.23 743.947C395.975 740.7 437.88 738.329 480.73 736.9L404.339 687.052L355.23 743.947Z" fill="white"/>
</mask>
<g mask="url(#mask3_747_2772)">
<path id="Fill 10" fill-rule="evenodd" clip-rule="evenodd" d="M334.582 793.076H1053.31V665.027H334.582V793.076Z" fill="#E0E2EE"/>
</g>
</g>
<g id="Group 15">
<mask id="mask4_747_2772" style="mask-type:luminance" maskUnits="userSpaceOnUse" x="346" y="743" width="10" height="5">
<path id="Clip 14" fill-rule="evenodd" clip-rule="evenodd" d="M346.969 744.103L351.223 747.643L355.23 743.508C352.471 743.69 349.707 743.888 346.969 744.103Z" fill="white"/>
</mask>
<g mask="url(#mask4_747_2772)">
<path id="Fill 13" fill-rule="evenodd" clip-rule="evenodd" d="M326.32 768.292H375.887V722.855H326.32V768.292Z" fill="#F1F2F7"/>
</g>
</g>
<g id="Group 18">
<mask id="mask5_747_2772" style="mask-type:luminance" maskUnits="userSpaceOnUse" x="173" y="669" width="174" height="96">
<path id="Clip 17" fill-rule="evenodd" clip-rule="evenodd" d="M173.484 738.006C174.781 746.808 176.347 755.532 178.168 764.16C231.449 755.969 287.968 749.381 346.969 744.573L264.808 669.157L173.484 738.006Z" fill="white"/>
</mask>
<g mask="url(#mask5_747_2772)">
<path id="Fill 16" fill-rule="evenodd" clip-rule="evenodd" d="M152.836 784.814H367.627V648.504H152.836V784.814Z" fill="#E0E2EE"/>
</g>
</g>
<g id="Group 21">
<mask id="mask6_747_2772" style="mask-type:luminance" maskUnits="userSpaceOnUse" x="449" y="899" width="323" height="30">
<path id="Clip 20" fill-rule="evenodd" clip-rule="evenodd" d="M449.074 913.761C449.074 921.742 521.199 928.218 610.172 928.218C699.141 928.218 771.265 921.742 771.265 913.761C771.265 905.781 699.141 899.304 610.172 899.304C521.199 899.304 449.074 905.781 449.074 913.761Z" fill="white"/>
</mask>
<g mask="url(#mask6_747_2772)">
<path id="Fill 19" fill-rule="evenodd" clip-rule="evenodd" d="M428.426 948.872H791.918V878.651H428.426V948.872Z" fill="#D8DBEA"/>
</g>
</g>
<g id="Group 24">
<mask id="mask7_747_2772" style="mask-type:luminance" maskUnits="userSpaceOnUse" x="995" y="962" width="59" height="59">
<path id="Clip 23" fill-rule="evenodd" clip-rule="evenodd" d="M995.473 991.343C995.473 1007.25 1008.48 1020.26 1024.39 1020.26C1040.29 1020.26 1053.3 1007.25 1053.3 991.343C1053.3 975.444 1040.29 962.429 1024.39 962.429C1008.48 962.429 995.473 975.444 995.473 991.343Z" fill="white"/>
</mask>
<g mask="url(#mask7_747_2772)">
<path id="Fill 22" fill-rule="evenodd" clip-rule="evenodd" d="M974.824 1040.91H1073.96V941.776H974.824V1040.91Z" fill="#E1E3EF"/>
</g>
</g>
<g id="Group 47">
<path id="Fill 25" fill-rule="evenodd" clip-rule="evenodd" d="M605.915 562.717C592.466 562.717 581.561 551.812 581.561 538.363C581.561 524.918 592.466 514.017 605.915 514.017C619.364 514.017 630.269 524.918 630.269 538.363C630.269 551.812 619.364 562.717 605.915 562.717ZM605.913 503.933C586.896 503.933 571.477 519.348 571.477 538.365C571.477 557.391 586.896 572.806 605.913 572.806C624.931 572.806 640.354 557.391 640.354 538.365C640.354 519.348 624.931 503.933 605.913 503.933Z" fill="#D8DBEA"/>
<path id="Fill 27" fill-rule="evenodd" clip-rule="evenodd" d="M699.244 861.228H512.586C493.999 861.228 478.922 846.16 478.922 827.568V655.917C478.922 588.898 533.76 534.064 600.774 534.064H611.051C678.074 534.064 732.904 588.898 732.904 655.917V827.568C732.904 846.16 717.836 861.228 699.244 861.228Z" fill="#D8DBEA"/>
<path id="Fill 29" fill-rule="evenodd" clip-rule="evenodd" d="M748.186 820.333H746.361C738.95 820.333 732.891 814.27 732.891 806.864V711.116C732.891 703.706 738.95 697.646 746.361 697.646H764.622C772.028 697.646 778.088 703.706 778.088 711.116V790.428C778.088 806.876 764.63 820.333 748.186 820.333Z" fill="url(#paint0_linear_747_2772)"/>
<path id="Fill 31" fill-rule="evenodd" clip-rule="evenodd" d="M465.446 820.333H463.621C447.168 820.333 433.711 806.876 433.711 790.428V711.116C433.711 703.706 439.771 697.646 447.181 697.646H465.446C472.852 697.646 478.912 703.706 478.912 711.116V806.864C478.912 814.27 472.852 820.333 465.446 820.333Z" fill="url(#paint1_linear_747_2772)"/>
<path id="Fill 33" fill-rule="evenodd" clip-rule="evenodd" d="M685.537 814.9L603.747 840.782L521.953 814.9V758.988H685.537V814.9Z" fill="#BEC0D6"/>
<path id="Fill 35" fill-rule="evenodd" clip-rule="evenodd" d="M555.067 829.777L551.23 833.602C548.041 836.778 542.878 836.778 539.685 833.602L535.852 829.777V794.019H555.067V829.777Z" fill="url(#paint2_linear_747_2772)"/>
<path id="Fill 37" fill-rule="evenodd" clip-rule="evenodd" d="M549.328 823.483C549.328 825.631 547.589 827.366 545.445 827.366C543.298 827.366 541.559 825.631 541.559 823.483C541.559 821.335 543.298 819.601 545.445 819.601C547.589 819.601 549.328 821.335 549.328 823.483Z" fill="#F7FFF6"/>
<path id="Fill 39" fill-rule="evenodd" clip-rule="evenodd" d="M664.825 829.777L660.988 833.602C657.799 836.778 652.636 836.778 649.443 833.602L645.609 829.777V794.019H664.825V829.777Z" fill="url(#paint3_linear_747_2772)"/>
<path id="Fill 41" fill-rule="evenodd" clip-rule="evenodd" d="M659.109 823.483C659.109 825.631 657.371 827.366 655.227 827.366C653.079 827.366 651.34 825.631 651.34 823.483C651.34 821.335 653.079 819.601 655.227 819.601C657.371 819.601 659.109 821.335 659.109 823.483Z" fill="#F7FFF6"/>
<path id="Fill 43" fill-rule="evenodd" clip-rule="evenodd" d="M720.699 662.214V680.422V718.221L505.09 614.956C519.423 578.318 555.239 552.233 596.781 552.233H615.034C669.186 552.233 720.699 608.017 720.699 662.214Z" fill="white"/>
<path id="Fill 45" fill-rule="evenodd" clip-rule="evenodd" d="M505.09 671.732V653.524V615.725L720.699 718.994C706.37 755.628 670.553 781.713 629.008 781.713H610.759C556.603 781.713 505.09 725.929 505.09 671.732Z" fill="url(#paint4_linear_747_2772)"/>
</g>
<g id="Bee">
<path id="Stroke 3" d="M675.257 173.484C532.172 185.597 479.583 306.709 522.664 377.307C553.064 427.117 604.576 494.434 700.6 478.287C796.619 462.135 804.709 373.272 754.14 361.184C703.571 349.101 523.416 405.475 543.777 535.71C558.474 629.678 685.865 656.764 685.865 656.764" stroke="#D7DAE9" stroke-width="2.75373" stroke-dasharray="9.64"/>
<path id="Fill 5" fill-rule="evenodd" clip-rule="evenodd" d="M757.961 99.1343C757.961 99.1343 778.464 45.5753 780.626 24.7402C781.763 13.8533 763.721 -16.4584 742.606 11.5799C721.491 39.6182 731.124 73.9967 757.961 99.1343Z" fill="#D8DBEA"/>
<path id="Fill 7_2" fill-rule="evenodd" clip-rule="evenodd" d="M685.208 40.8042C661.189 32.6816 650.315 39.0146 645.683 51.6556C641.046 64.3007 647.518 88.3698 683.745 93.8565C719.976 99.3432 755.893 99.1327 755.893 99.1327C755.893 99.1327 709.227 48.9269 685.208 40.8042Z" fill="#D8DBEA"/>
<path id="Fill 9" fill-rule="evenodd" clip-rule="evenodd" d="M753.894 109.747C754.439 107.509 755.16 105.363 755.963 103.266C751.529 103.966 747.017 104.95 742.476 106.282C737.55 107.723 732.952 109.614 728.628 111.78C726.751 115.326 725.231 119.116 724.243 123.185C718.157 148.233 732.526 173.48 756.668 181.747C759.283 181.229 761.91 180.63 764.541 179.86C771.893 177.707 778.676 174.856 784.807 171.553C761.23 161.209 747.66 135.395 753.894 109.747Z" fill="#D8DBEA"/>
<path id="Fill 11" fill-rule="evenodd" clip-rule="evenodd" d="M719.428 122.81C720.005 120.335 720.787 117.969 721.655 115.657C700.768 129.038 689.071 149.805 691 161.915C677.653 167.651 669.152 172.484 669.152 172.484C669.152 172.484 679.223 171.717 693.897 168.897C701.756 180.382 723.543 188.072 747.634 185.315C725.81 174.029 713.493 148.346 719.428 122.81Z" fill="#D8DBEA"/>
<path id="Fill 13_2" fill-rule="evenodd" clip-rule="evenodd" d="M788.591 131.89C783.058 130.562 779.628 125.004 780.96 119.437C782.288 113.909 787.88 110.483 793.409 111.811C798.967 113.147 802.363 118.727 801.04 124.259C799.703 129.821 794.153 133.222 788.591 131.89ZM812.831 124.453C808.378 109.03 787.905 101.065 763.753 103.793C762.744 106.183 761.885 108.704 761.272 111.315C755.894 134.208 768.316 157.236 789.384 165.223C806.965 154.039 816.836 138.203 812.831 124.453Z" fill="#D8DBEA"/>
</g>
</g>
<defs>
<linearGradient id="paint0_linear_747_2772" x1="755.489" y1="636.303" x2="675.897" y2="665.624" gradientUnits="userSpaceOnUse">
<stop stop-color="#A7C8E8"/>
<stop offset="1" stop-color="#206BC4"/>
</linearGradient>
<linearGradient id="paint1_linear_747_2772" x1="456.311" y1="636.303" x2="376.714" y2="665.629" gradientUnits="userSpaceOnUse">
<stop stop-color="#A7C8E8"/>
<stop offset="1" stop-color="#206BC4"/>
</linearGradient>
<linearGradient id="paint2_linear_747_2772" x1="545.459" y1="773.036" x2="513.689" y2="787.583" gradientUnits="userSpaceOnUse">
<stop stop-color="#A7C8E8"/>
<stop offset="1" stop-color="#206BC4"/>
</linearGradient>
<linearGradient id="paint3_linear_747_2772" x1="655.217" y1="773.036" x2="623.447" y2="787.583" gradientUnits="userSpaceOnUse">
<stop stop-color="#A7C8E8"/>
<stop offset="1" stop-color="#206BC4"/>
</linearGradient>
<linearGradient id="paint4_linear_747_2772" x1="612.894" y1="532.731" x2="452.426" y2="741.17" gradientUnits="userSpaceOnUse">
<stop stop-color="#A7C8E8"/>
<stop offset="1" stop-color="#206BC4"/>
</linearGradient>
</defs>
</svg>
