<svg width="512" height="512" viewBox="0 0 512 512" fill="none" xmlns="http://www.w3.org/2000/svg">
<path d="M509.869 438.074C522.219 413.636 486.926 291.447 242.215 291.447C65.5827 291.447 -15.4865 391.461 2.43628 442.147" fill="url(#paint0_radial_749_1029)"/>
<mask id="mask0_749_1029" style="mask-type:luminance" maskUnits="userSpaceOnUse" x="0" y="291" width="512" height="152">
<path d="M509.869 438.074C522.219 413.636 486.926 291.447 242.215 291.447C65.5827 291.447 -15.4865 391.461 2.43628 442.147" fill="white"/>
</mask>
<g mask="url(#mask0_749_1029)">
<ellipse opacity="0.671968" cx="204.47" cy="399.352" rx="13.4579" ry="7.47522" fill="url(#paint1_linear_749_1029)"/>
<ellipse opacity="0.256348" cx="341.835" cy="348.558" rx="21.2336" ry="11.6613" fill="url(#paint2_linear_749_1029)"/>
<ellipse opacity="0.729957" cx="100.191" cy="317.46" rx="21.2336" ry="11.6613" fill="url(#paint3_linear_749_1029)"/>
</g>
<path opacity="0.5" d="M199.473 318.544C199.473 318.544 251.545 343.03 272.203 352.427C288.566 359.87 372.821 383.681 382.859 376.912C392.896 370.144 415.058 351.568 407.742 338.842C400.425 326.115 361.947 303.264 343.545 299.925C325.143 296.587 272.524 311.764 272.524 311.764L227.642 319.472L199.473 318.544Z" fill="url(#paint4_linear_749_1029)"/>
<path d="M238.076 209.067L180.049 251.733L195.521 215.434L253.633 178.541L238.076 209.067Z" fill="#E2E7EC"/>
<path d="M194.555 216.183L253.632 179.2V280.063L199.478 318.03L194.555 216.183Z" fill="#D8DFE6"/>
<path d="M253.633 179.2L344.217 200.392V301.292L253.633 280.1V179.2Z" fill="#E9EFF1"/>
<path d="M194.555 216.178L287.109 237.808V338.708L199.478 318.585L194.555 216.178Z" fill="#E8EAEB"/>
<path d="M285.141 237.845L344.218 200.862V301.725L285.141 338.708V237.845Z" fill="#D8DFE6"/>
<mask id="mask1_749_1029" style="mask-type:luminance" maskUnits="userSpaceOnUse" x="285" y="200" width="60" height="139">
<path d="M285.141 237.845L344.218 200.862V301.725L285.141 338.708V237.845Z" fill="white"/>
</mask>
<g mask="url(#mask1_749_1029)">
<rect x="307.086" y="192.457" width="18.567" height="154.657" fill="#C7D0D9"/>
</g>
<path d="M311.706 267.815L369.818 230.923L343.252 200.861L285.141 237.754L311.706 267.815Z" fill="#E2E7EC"/>
<path opacity="0.5" d="M149.239 321.087L240.636 367.787L249.169 343.041L159.494 313.211L149.239 321.087Z" fill="url(#paint5_linear_749_1029)"/>
<path d="M146.747 244.317L178.262 246.801L171.264 315.354C171.264 315.354 170.651 316.039 169.164 315.773C167.677 315.507 166.117 314.68 166.117 314.68L161.43 260.182C161.43 260.182 158.719 279.452 158.908 284.874C159.051 288.958 160.448 293.942 161.195 298.204C161.839 301.872 163.192 310.638 163.192 310.638C163.192 310.638 161.593 311.369 160.742 311.534C159.892 311.699 158.801 310.792 158.801 310.792C158.801 310.792 147.751 289.342 147.609 285.269C147.467 281.195 146.747 244.317 146.747 244.317Z" fill="url(#paint6_linear_749_1029)"/>
<path d="M158.313 310.692C158.313 310.692 156.909 313.219 155.165 314.76C153.421 316.301 149.98 318.141 149.196 318.977C148.411 319.813 149.268 321.045 149.268 321.045L157.702 320.751L164.44 315.05L163.499 309.617L158.313 310.692Z" fill="#677285"/>
<path d="M172.056 313.618L174.025 319.079C174.025 319.079 170.792 321.583 166.325 322.28C161.858 322.977 158.779 321.906 158.779 321.906C158.779 321.906 157.973 320.281 159.493 319.587C160.191 319.268 161.756 317.941 163.13 316.243C163.75 315.477 166.087 313.827 166.087 313.827L172.056 313.618Z" fill="#677285"/>
<path d="M186.176 208.576C186.176 208.576 188.759 212.506 190.343 211.454C191.927 210.403 201.815 200.268 201.815 200.268C201.815 200.268 204.756 198.004 205.301 198.542C205.845 199.08 204.32 200.268 204.32 200.268C204.32 200.268 207.529 200.583 208.532 200.583C209.535 200.583 211.644 202.184 210.265 202.723C208.886 203.262 203.535 203.395 203.535 203.395C203.535 203.395 195.412 218.757 191.179 219.847C186.945 220.936 181.113 214.775 181.113 214.775L186.176 208.576Z" fill="#FDE7E6"/>
<path d="M144.902 208.858C144.902 208.858 143.209 212.325 141.674 211.493C140.139 210.661 131.528 201.58 131.528 201.58C131.528 201.58 128.66 199.823 127.958 200.14C127.257 200.456 128.986 201.58 128.986 201.58C128.986 201.58 124.767 201.922 123.973 202.241C123.179 202.56 122.255 203.539 123.455 203.983C124.655 204.428 129.249 204.744 129.249 204.744C129.249 204.744 135.635 217.364 140.473 218.839C145.312 220.315 149.434 214.501 149.434 214.501L144.902 208.858Z" fill="#FDE7E6"/>
<path d="M160.564 198.237V192.037C160.564 192.037 157.349 192.2 156.042 190.047C154.736 187.895 154.383 181.786 154.383 181.786L155.367 178.954L165.05 178.545L170.137 182.88L167.768 187.063L167.317 187.867L169.574 197.374L160.564 198.237Z" fill="#FDE7E6"/>
<mask id="mask2_749_1029" style="mask-type:luminance" maskUnits="userSpaceOnUse" x="154" y="178" width="17" height="21">
<path d="M160.564 198.237V192.037C160.564 192.037 157.349 192.2 156.042 190.047C154.736 187.895 154.383 181.786 154.383 181.786L155.367 178.954L165.05 178.545L170.137 182.88L167.768 187.063L167.317 187.867L169.574 197.374L160.564 198.237Z" fill="white"/>
</mask>
<g mask="url(#mask2_749_1029)">
<path d="M166.864 186.146C164.003 189.705 159.054 192.192 158.409 192.192C157.765 192.192 162.008 196.655 162.008 196.655L165.46 198.238L170.36 197.199L172.109 192.192L169.021 186.511C169.021 186.511 169.726 182.587 166.864 186.146Z" fill="url(#paint7_linear_749_1029)"/>
</g>
<path d="M142.848 211.348L147.606 217.757L150.64 214.553C150.64 214.553 148.332 227.207 147.606 233.276C146.879 239.345 146.744 245.39 146.744 245.39C146.744 245.39 154.363 248.219 160.043 248.695C165.722 249.171 178.944 247.945 178.944 247.945L177.237 212.324L182.189 216.922L188.004 210.208C188.004 210.208 177.995 194.826 176.102 193.929C174.209 193.033 168.947 193.929 168.947 193.929C168.947 193.929 165.213 198.348 163.699 198.41C162.185 198.471 158.826 193.929 158.826 193.929C158.826 193.929 153.461 193.072 151.9 194.826C150.34 196.579 142.848 211.348 142.848 211.348Z" fill="url(#paint8_linear_749_1029)"/>
<path d="M154.387 181.855C154.387 181.855 155.528 178.976 157.017 179.477C158.427 179.952 159.648 181.082 161.402 181.612C163.155 182.143 163.349 179.76 164.541 180.162C165.733 180.565 164.946 184.069 165.786 184.722C166.626 185.375 166.626 180.162 168.416 181.566C170.207 182.969 166.548 186.918 166.548 186.918C166.548 186.918 167.017 189.346 167.168 189.511C167.318 189.676 167.301 187.745 167.301 187.745C167.301 187.745 169.011 187.089 169.74 184.128C170.469 181.167 170.784 179.988 169.74 177.837C168.696 175.686 168.398 174.001 165.786 172.986C163.173 171.971 161.191 172.368 159.365 172.986C157.539 173.604 156.216 174.832 155.371 176.053C153.402 178.953 154.387 181.855 154.387 181.855Z" fill="#4D364F"/>
<path fill-rule="evenodd" clip-rule="evenodd" d="M330.442 105.916C328.368 106.551 285.409 132.253 285.409 132.253L297.945 133.188L306.854 143.034C306.854 143.034 332.517 105.282 330.442 105.916Z" fill="#206BC4"/>
<mask id="mask3_749_1029" style="mask-type:luminance" maskUnits="userSpaceOnUse" x="285" y="105" width="46" height="39">
<path fill-rule="evenodd" clip-rule="evenodd" d="M330.442 105.916C328.368 106.551 285.409 132.253 285.409 132.253L297.945 133.188L306.854 143.034C306.854 143.034 332.517 105.282 330.442 105.916Z" fill="white"/>
</mask>
<g mask="url(#mask3_749_1029)">
<path fill-rule="evenodd" clip-rule="evenodd" d="M297.949 133.189L330.446 105.917L306.857 143.034L297.949 133.189Z" fill="#275EBD" fill-opacity="0.5"/>
</g>
<path fill-rule="evenodd" clip-rule="evenodd" d="M323.99 135.7L308.926 134.125L330.457 106.181L323.99 135.7Z" fill="#206BC4"/>
<path fill-rule="evenodd" clip-rule="evenodd" d="M296.255 154.317C297.196 152.325 298.144 150.263 299.098 148.132L300.656 148.829C299.697 150.971 298.744 153.044 297.798 155.046L296.255 154.317ZM290.12 166.468C291.16 164.549 292.209 162.539 293.266 160.438L294.791 161.206C293.726 163.322 292.669 165.347 291.621 167.282L290.12 166.468ZM286.776 172.38C285.563 174.424 284.362 176.34 283.174 178.128L284.595 179.073C285.8 177.26 287.016 175.32 288.244 173.251L286.776 172.38ZM274.847 188.76C276.286 187.267 277.747 185.563 279.229 183.649L280.579 184.693C279.06 186.655 277.559 188.406 276.075 189.945L274.847 188.76ZM269.835 193.17C267.84 194.6 265.898 195.588 264.008 196.141L264.487 197.779C266.572 197.169 268.685 196.094 270.829 194.557L269.835 193.17ZM251.972 193.35C253.849 194.864 255.757 195.855 257.699 196.333L257.29 197.99C255.095 197.45 252.964 196.343 250.901 194.679L251.972 193.35ZM247.37 188.503C247.265 188.364 247.159 188.224 247.054 188.082C245.68 186.233 244.682 184.478 244.045 182.82L242.452 183.432C243.147 185.243 244.222 187.132 245.684 189.1C245.794 189.248 245.904 189.394 246.014 189.539L247.37 188.503ZM246.962 171.334C245.119 172.857 243.933 174.605 243.449 176.555L241.793 176.144C242.37 173.817 243.764 171.763 245.875 170.019L246.962 171.334ZM252.66 168.128C254.581 167.378 256.74 166.766 259.082 166.305L258.751 164.63C256.315 165.111 254.058 165.75 252.04 166.538L252.66 168.128ZM272.443 165.328C270.173 165.248 267.91 165.285 265.707 165.44L265.587 163.738C267.851 163.578 270.174 163.54 272.504 163.623L272.443 165.328ZM279.241 165.926C281.529 166.252 283.742 166.698 285.833 167.257L286.274 165.609C284.116 165.031 281.836 164.572 279.482 164.237L279.241 165.926ZM297.837 172.882C296.276 171.612 294.372 170.472 292.174 169.481L292.875 167.925C295.202 168.974 297.232 170.189 298.914 171.558L297.837 172.882ZM301.905 178.008C302.317 178.965 302.58 179.962 302.691 180.998C302.809 182.095 302.849 183.197 302.813 184.305L304.519 184.36C304.558 183.173 304.514 181.992 304.388 180.816C304.259 179.609 303.952 178.446 303.473 177.334L301.905 178.008ZM299.174 197.02C300.272 194.949 301.123 192.898 301.726 190.87L303.361 191.356C302.726 193.496 301.832 195.65 300.682 197.82L299.174 197.02ZM295.555 202.727C294.292 204.446 292.865 206.179 291.273 207.926L292.534 209.076C294.166 207.286 295.632 205.506 296.931 203.737L295.555 202.727ZM281.475 217.161C283.286 215.661 284.982 214.17 286.564 212.688L287.731 213.934C286.123 215.44 284.401 216.954 282.563 218.475L281.475 217.161ZM276.095 221.387C274.34 222.699 272.5 224.019 270.573 225.344L271.541 226.75C273.486 225.412 275.344 224.08 277.117 222.753L276.095 221.387ZM261.291 231.368C262.503 230.622 263.689 229.878 264.849 229.135L265.769 230.573C264.601 231.32 263.406 232.07 262.185 232.822L261.291 231.368Z" fill="#275EBD"/>
<defs>
<radialGradient id="paint0_radial_749_1029" cx="0" cy="0" r="1" gradientUnits="userSpaceOnUse" gradientTransform="translate(222.056 343.71) rotate(-90) scale(87.6208 915.111)">
<stop stop-color="#EBEDF0" stop-opacity="0.24"/>
<stop offset="0.536775" stop-color="#EBEDF0" stop-opacity="0.845525"/>
<stop offset="1" stop-color="#E0E4E7" stop-opacity="0.01"/>
</radialGradient>
<linearGradient id="paint1_linear_749_1029" x1="193.637" y1="397.37" x2="197.737" y2="406.138" gradientUnits="userSpaceOnUse">
<stop stop-color="#E1E7EA"/>
<stop offset="1" stop-color="#D0D6DC"/>
</linearGradient>
<linearGradient id="paint2_linear_749_1029" x1="324.006" y1="347.468" x2="331.508" y2="363.117" gradientUnits="userSpaceOnUse">
<stop stop-color="#E1E7EA"/>
<stop offset="1" stop-color="#D0D6DC"/>
</linearGradient>
<linearGradient id="paint3_linear_749_1029" x1="86.6517" y1="317.648" x2="90.8968" y2="334.56" gradientUnits="userSpaceOnUse">
<stop stop-color="#FBFBFB"/>
<stop offset="1" stop-color="#D9DFE3"/>
</linearGradient>
<linearGradient id="paint4_linear_749_1029" x1="191.821" y1="327.035" x2="206.968" y2="394.964" gradientUnits="userSpaceOnUse">
<stop stop-color="#C4CDD1"/>
<stop offset="1" stop-color="#C6CFD3" stop-opacity="0.01"/>
</linearGradient>
<linearGradient id="paint5_linear_749_1029" x1="146.067" y1="333.873" x2="163.639" y2="379.731" gradientUnits="userSpaceOnUse">
<stop stop-color="#C4CDD1"/>
<stop offset="1" stop-color="#C6CFD3" stop-opacity="0.01"/>
</linearGradient>
<linearGradient id="paint6_linear_749_1029" x1="180.541" y1="315.479" x2="178.036" y2="243.766" gradientUnits="userSpaceOnUse">
<stop stop-color="#A1A7B8"/>
<stop offset="1" stop-color="#7B8195"/>
</linearGradient>
<linearGradient id="paint7_linear_749_1029" x1="168.22" y1="194.075" x2="168.22" y2="188.067" gradientUnits="userSpaceOnUse">
<stop stop-color="#FBD8D6"/>
<stop offset="1" stop-color="#EAC0BE" stop-opacity="0.7"/>
</linearGradient>
<linearGradient id="paint8_linear_749_1029" x1="120.004" y1="218.752" x2="167.48" y2="268.835" gradientUnits="userSpaceOnUse">
<stop stop-color="#E5E9F0"/>
<stop offset="1" stop-color="#D2DAE8"/>
</linearGradient>
</defs>
</svg>
