<svg width="54" height="55" viewBox="0 0 54 55" fill="none" xmlns="http://www.w3.org/2000/svg">
<rect width="54" height="54.9666" rx="4" fill="#67CFCF"/>
<g clip-path="url(#clip0_692_3000)">
<path d="M12 38.1475C12 37.8545 12.1025 37.6055 12.3076 37.4004C12.5127 37.1953 12.7715 37.0928 13.084 37.0928L37.7227 37.0928L37.7227 39.2314L13.084 39.2314C12.7715 39.2314 12.5127 39.124 12.3076 38.9092C12.1025 38.6943 12 38.4404 12 38.1475ZM15.6328 29.3877L18.3281 26.0186C18.4062 25.9209 18.4355 25.8086 18.416 25.6816C18.3965 25.5547 18.3281 25.4521 18.2109 25.374C18.1523 25.3545 18.0986 25.335 18.0498 25.3154C18.001 25.2959 17.9473 25.2861 17.8887 25.2861L12.5273 25.2861C12.3906 25.2861 12.2686 25.335 12.1611 25.4326C12.0537 25.5303 12 25.6377 12 25.7549C12 25.8135 12.0098 25.8623 12.0293 25.9014C12.0488 25.9404 12.0684 25.9795 12.0879 26.0186L14.7832 29.3877C14.8613 29.4854 14.9736 29.5439 15.1201 29.5635C15.2666 29.583 15.3984 29.5635 15.5156 29.5049C15.5352 29.4854 15.5596 29.4658 15.5889 29.4463C15.6182 29.4268 15.6328 29.4072 15.6328 29.3877ZM41.7949 37.708L38.4551 35.042C38.3379 34.9443 38.2158 34.9102 38.0889 34.9395C37.9619 34.9687 37.8691 35.042 37.8105 35.1592C37.7715 35.1982 37.7471 35.2471 37.7373 35.3057C37.7275 35.3643 37.7227 35.4131 37.7227 35.4521L37.7227 40.8428C37.7227 40.9795 37.7666 41.1016 37.8545 41.209C37.9424 41.3164 38.0547 41.3701 38.1914 41.3701C38.2305 41.3701 38.2744 41.3604 38.3232 41.3408C38.3721 41.3213 38.416 41.3018 38.4551 41.2822L41.7949 38.5869C41.9121 38.5088 41.9805 38.3965 42 38.25C42.0195 38.1035 41.9902 37.9717 41.9121 37.8545C41.8926 37.8154 41.873 37.7861 41.8535 37.7666C41.834 37.7471 41.8145 37.7275 41.7949 37.708ZM27 15.6475C25.5156 15.6475 24.1289 15.9307 22.8398 16.4971C21.5312 17.0635 20.3936 17.8301 19.4268 18.7969C18.46 19.7637 17.6934 20.9014 17.127 22.21C16.5605 23.499 16.2773 24.8857 16.2773 26.3701L14.1387 26.3701C14.1387 24.5928 14.4805 22.9229 15.1641 21.3604C15.8281 19.7979 16.7412 18.4355 17.9033 17.2734C19.0654 16.1113 20.4277 15.1885 21.9902 14.5049C23.5527 13.8408 25.2227 13.5088 27 13.5088C28.7773 13.5088 30.4473 13.8408 32.0098 14.5049C33.5723 15.1885 34.9346 16.1113 36.0967 17.2734C37.2588 18.4355 38.1719 19.7979 38.8359 21.3604C39.5195 22.9229 39.8613 24.5928 39.8613 26.3701C39.8613 28.1475 39.5195 29.8174 38.8359 31.3799C38.1719 32.9424 37.2588 34.3047 36.0967 35.4668C34.9346 36.6289 33.5723 37.542 32.0098 38.2061C30.4473 38.8896 28.7773 39.2314 27 39.2314L27 37.0928C28.4844 37.0928 29.8711 36.8096 31.1602 36.2432C32.4687 35.6768 33.6064 34.9102 34.5732 33.9434C35.54 32.9766 36.3066 31.8389 36.873 30.5303C37.4395 29.2412 37.7227 27.8545 37.7227 26.3701C37.7227 24.8857 37.4395 23.499 36.873 22.21C36.3066 20.9014 35.54 19.7637 34.5732 18.7969C33.6064 17.8301 32.4687 17.0635 31.1602 16.4971C29.8711 15.9307 28.4844 15.6475 27 15.6475Z" fill="#091426"/>
</g>
<defs>
<clipPath id="clip0_692_3000">
<rect width="30" height="30" fill="white" transform="matrix(1 -4.53126e-10 -4.53128e-10 -1 12 42)"/>
</clipPath>
</defs>
</svg>
