<svg
  id="visual"
  viewBox="0 0 960 540"
  width="960"
  height="540"
  xmlns="http://www.w3.org/2000/svg"
  xmlns:xlink="http://www.w3.org/1999/xlink"
  version="1.1"
><rect x="0" y="0" width="960" height="540" fill="#51A7B9" fill-opacity=".11" /><path
    d="M637 540L608.7 522C580.3 504 523.7 468 523.8 432C524 396 581 360 561 324C541 288 444 252 445.7 216C447.3 180 547.7 144 563.8 108C580 72 512 36 478 18L444 0L960 0L960 18C960 36 960 72 960 108C960 144 960 180 960 216C960 252 960 288 960 324C960 360 960 396 960 432C960 468 960 504 960 522L960 540Z"
    fill="#83C4D2"
    stroke-linecap="round"
    stroke-linejoin="miter"
  /></svg>
