<svg width="960" height="540" viewBox="0 0 960 540" fill="none" xmlns="http://www.w3.org/2000/svg">
<g clip-path="url(#clip0_1_17)">
<path d="M960 0H0V540H960V0Z" fill="#51A7B9" fill-opacity="0.11"/>
<g filter="url(#filter0_f_1_17)">
<path d="M635 547L606.7 529C578.3 511 521.7 475 521.8 439C522 403 579 367 559 331C539 295 442 259 443.7 223C445.3 187 545.7 151 561.8 115C578 79 510 43 476 25L442 7H958V25C958 43 958 79 958 115C958 151 958 187 958 223C958 259 958 295 958 331C958 367 958 403 958 439C958 475 958 511 958 529V547H635Z" fill="#83C4D2" fill-opacity="0.69"/>
</g>
<path d="M683 540L654.7 522C626.3 504 569.7 468 569.8 432C570 396 627 360 607 324C587 288 490 252 491.7 216C493.3 180 593.7 144 609.8 108C626 72 558 36 524 18L490 0H1006V18C1006 36 1006 72 1006 108C1006 144 1006 180 1006 216C1006 252 1006 288 1006 324C1006 360 1006 396 1006 432C1006 468 1006 504 1006 522V540H683Z" fill="#83C4D2"/>
</g>
<defs>
<filter id="filter0_f_1_17" x="402" y="-33" width="596" height="620" filterUnits="userSpaceOnUse" color-interpolation-filters="sRGB">
<feFlood flood-opacity="0" result="BackgroundImageFix"/>
<feBlend mode="normal" in="SourceGraphic" in2="BackgroundImageFix" result="shape"/>
<feGaussianBlur stdDeviation="20" result="effect1_foregroundBlur_1_17"/>
</filter>
<clipPath id="clip0_1_17">
<rect width="960" height="540" fill="white"/>
</clipPath>
</defs>
</svg>
