<svg xmlns="http://www.w3.org/2000/svg" viewBox="0 0 1024 768" height="180px" width="300px" version="1.1">
  
    <g id="logo-group">
      <g id="logo-center" transform="translate(190.4448 0)">
        <g id="slogan" style="font-style:normal;font-weight:700;font-size:32px;line-height:1;font-family:ComfortaaBoldAlt2;font-variant-ligatures:none;text-align:center;text-anchor:middle" transform="translate(0 0)"></g>
        <g id="title" style="font-style:normal;font-weight:700;font-size:72px;line-height:1;font-family:ComfortaaBoldAlt2;font-variant-ligatures:normal;text-align:center;text-anchor:middle" transform="translate(0 0)">
          <path id="path157462" style="font-style:normal;font-weight:700;font-size:72px;line-height:1;font-family:ComfortaaBoldAlt2;font-variant-ligatures:normal;text-align:center;text-anchor:middle" d="m 324.7955,-1.08 c 0.72,-0.72 1.08,-1.584 1.08,-2.664 v -15.768 h 10.656 c 3.528,0 6.696,-0.72 9.504,-2.304 2.808,-1.512 4.968,-3.672 6.552,-6.408 1.584,-2.736 2.376,-5.832 2.376,-9.36 0,-3.6 -0.792,-6.768 -2.376,-9.648 -1.584,-2.808 -3.744,-5.04 -6.552,-6.624 -2.808,-1.584 -5.976,-2.376 -9.504,-2.376 h -14.4 c -1.08,0 -1.944,0.36 -2.664,1.08 -0.72,0.72 -1.08,1.584 -1.08,2.664 v 48.744 c 0,1.08 0.36,1.944 1.08,2.664 0.72,0.72 1.584,1.08 2.664,1.08 1.08,0 1.944,-0.36 2.664,-1.08 z m 19.8,-28.44 c -2.16,2.088 -4.824,3.096 -8.064,3.096 h -10.656 V -49.32 h 10.656 c 3.24,0 5.904,1.152 8.064,3.312 2.088,2.232 3.168,5.04 3.168,8.424 0,3.312 -1.08,5.976 -3.168,8.064 z" stroke-width="0" stroke-linejoin="miter" stroke-miterlimit="2" fill="#6898c3" stroke="#6898c3" transform="translate(0 316.8784) translate(50 27.50720000000001) scale(1.4) translate(-318.3875 56.232)"></path>
          <path id="path157464" style="font-style:normal;font-weight:700;font-size:72px;line-height:1;font-family:ComfortaaBoldAlt2;font-variant-ligatures:normal;text-align:center;text-anchor:middle" d="m 364.25488,-38.376 c -0.72001,0.72 -1.00801,1.584 -1.00801,2.664 v 32.04 c 0,1.08 0.288,1.944 1.00801,2.664 0.71999,0.72 1.584,1.008 2.664,1.008 1.07999,0 1.94399,-0.288 2.66399,-1.008 0.64801,-0.72 1.008,-1.584 1.008,-2.664 v -32.04 c 0,-1.08 -0.35999,-1.944 -1.008,-2.664 -0.72,-0.648 -1.584,-1.008 -2.66399,-1.008 -1.08,0 -1.94401,0.36 -2.664,1.008 z m 5.976,-15.48 c -0.93601,-0.936 -2.01601,-1.44 -3.312,-1.44 -1.296,0 -2.44801,0.504 -3.38401,1.44 -0.93599,0.936 -1.368,2.016 -1.368,3.312 0,1.296 0.43201,2.448 1.368,3.384 0.936,0.936 2.08801,1.368 3.38401,1.368 1.29599,0 2.37599,-0.432 3.312,-1.368 0.93599,-0.936 1.44,-2.088 1.44,-3.384 0,-1.296 -0.50401,-2.376 -1.44,-3.312 z" stroke-width="0" stroke-linejoin="miter" stroke-miterlimit="2" fill="#6898c3" stroke="#6898c3" transform="translate(0 316.8784) translate(111.29111800000001 28.8176) scale(1.4) translate(-362.16687 55.296)"></path>
          <path id="path157466" style="font-style:normal;font-weight:700;font-size:72px;line-height:1;font-family:ComfortaaBoldAlt2;font-variant-ligatures:normal;text-align:center;text-anchor:middle" d="m 415.21175,-3.024 c 0,-0.936 -0.36,-1.8 -1.008,-2.52 l -11.448,-13.68 10.872,-14.184 c 0.648,-0.864 1.008,-1.8 1.008,-2.88 0,-0.864 -0.288,-1.584 -0.864,-2.16 -0.576,-0.576 -1.296,-0.936 -2.232,-0.936 -1.152,0 -2.088,0.432 -2.664,1.224 l -10.584,14.112 -11.808,-14.112 c -0.72,-0.792 -1.584,-1.224 -2.736,-1.224 -1.008,0 -1.8,0.288 -2.376,0.864 -0.576,0.576 -0.792,1.296 -0.792,2.088 0,1.008 0.36,1.872 1.08,2.736 l 11.88,14.04 -11.16,13.968 c -0.72,0.864 -1.008,1.728 -1.008,2.664 0,0.864 0.216,1.584 0.792,2.16 0.576,0.576 1.296,0.864 2.304,0.864 1.008,0 1.872,-0.36 2.592,-1.152 l 10.872,-13.68 11.448,13.68 c 0.576,0.792 1.44,1.152 2.592,1.152 0.936,0 1.728,-0.288 2.304,-0.864 0.576,-0.576 0.936,-1.296 0.936,-2.16 z" stroke-width="0" stroke-linejoin="miter" stroke-miterlimit="2" fill="#6898c3" stroke="#6898c3" transform="translate(0 316.8784) translate(137.06914999999998 51.0944) scale(1.4) translate(-380.57975 39.384)"></path>
          <path id="path157468" style="font-style:normal;font-weight:700;font-size:72px;line-height:1;font-family:ComfortaaBoldAlt2;font-variant-ligatures:normal;text-align:center;text-anchor:middle" d="m 437.66562,0.288 c 4.752,0 8.928,-1.44 12.6,-4.464 0.79201,-0.576 1.152,-1.368 1.296,-2.304 0.072,-1.008 -0.144,-1.8 -0.79199,-2.592 -0.57601,-0.72 -1.36801,-1.152 -2.30401,-1.224 -0.936,-0.072 -1.8,0.144 -2.52,0.792 -2.44799,1.944 -5.184,2.88 -8.28,2.88 -3.6,0 -6.696,-1.224 -9.21599,-3.816 -2.59201,-2.52 -3.81601,-5.616 -3.81601,-9.216 0,-3.6 1.224,-6.696 3.81601,-9.288 2.51999,-2.52 5.61599,-3.816 9.21599,-3.816 2.952,0 5.61601,0.936 7.992,2.736 2.30401,1.8 3.816,4.104 4.608,6.912 h -12.6 c -0.936,0 -1.79999,0.36 -2.448,1.008 -0.648,0.648 -1.00799,1.512 -1.00799,2.448 0,0.936 0.35999,1.8 1.00799,2.448 0.64801,0.648 1.512,1.008 2.448,1.008 h 16.56 c 0.93601,0 1.728,-0.36 2.37601,-1.008 0.71999,-0.648 1.07999,-1.512 1.07999,-2.448 0,-5.544 -2.016,-10.224 -5.904,-14.112 -3.88799,-3.888 -8.56799,-5.904 -14.112,-5.904 -5.544,0 -10.224,2.016 -14.112,5.904 -3.888,3.888 -5.83199,8.568 -5.83199,14.112 0,5.544 1.94399,10.224 5.83199,14.112 3.888,3.888 8.568,5.832 14.112,5.832 z" stroke-width="0" stroke-linejoin="miter" stroke-miterlimit="2" fill="#6898c3" stroke="#6898c3" transform="translate(0 316.8784) translate(189.067782 50.69120000000001) scale(1.4) translate(-417.72163 39.672)"></path>
          <path id="path157470" style="font-style:normal;font-weight:700;font-size:72px;line-height:1;font-family:ComfortaaBoldAlt2;font-variant-ligatures:normal;text-align:center;text-anchor:middle" d="m 465.03237,-55.224 c -0.72,0.72 -1.00799,1.584 -1.00799,2.592 v 39.312 c 0,2.592 0.43199,4.896 1.368,6.912 0.86399,2.016 2.15999,3.6 3.81599,4.752 1.656,1.152 3.528,1.656 5.616,1.656 h 0.144 c 1.44,0 2.59201,-0.288 3.528,-1.008 0.864,-0.648 1.368,-1.512 1.368,-2.592 0,-1.008 -0.36,-1.872 -0.93599,-2.592 -0.57601,-0.648 -1.368,-1.008 -2.30401,-1.008 h -1.8 c -1.08,0 -1.94399,-0.576 -2.592,-1.728 -0.71999,-1.152 -1.008,-2.592 -1.008,-4.392 v -39.312 c 0,-1.008 -0.36,-1.872 -1.008,-2.592 -0.72,-0.648 -1.58399,-1.008 -2.592,-1.008 -1.08,0 -1.94399,0.36 -2.592,1.008 z" stroke-width="0" stroke-linejoin="miter" stroke-miterlimit="2" fill="#6898c3" stroke="#6898c3" transform="translate(0 316.8784) translate(253.891632 27.50720000000001) scale(1.4) translate(-464.02438 56.232)"></path>
          <path id="path157472" style="font-style:normal;font-weight:700;font-size:72px;line-height:1;font-family:ComfortaaBoldAlt2;font-variant-ligatures:normal;text-align:center;text-anchor:middle" d="m 517.36063,-54.288 c -2.52,-1.296 -5.40001,-1.944 -8.56801,-1.944 h -17.20799 c -1.08001,0 -1.94401,0.36 -2.66401,1.08 -0.72,0.72 -1.08,1.584 -1.08,2.664 v 48.744 c 0,1.08 0.36,1.944 1.08,2.664 0.72,0.72 1.584,1.08 2.66401,1.08 h 18.71999 c 3.528,0 6.69601,-0.72 9.504,-2.16 2.808,-1.44 4.968,-3.456 6.55201,-6.048 1.58399,-2.592 2.37599,-5.472 2.37599,-8.784 0,-3.528 -0.936,-6.48 -2.808,-8.784 -1.872,-2.304 -4.464,-3.816 -7.70399,-4.608 2.16,-1.152 3.88799,-2.664 5.184,-4.536 1.29599,-1.872 1.94399,-3.96 1.94399,-6.336 0,-2.88 -0.72,-5.4 -2.15999,-7.704 -1.44001,-2.304 -3.38401,-4.032 -5.832,-5.328 z m -1.80001,19.08 c -1.728,1.44 -3.96,2.088 -6.768,2.088 h -13.464 v -16.2 h 13.464 c 2.808,0 5.04,0.72 6.768,2.088 1.72801,1.368 2.592,3.384 2.592,5.976 0,2.664 -0.86399,4.68 -2.592,6.048 z m 2.88,25.704 c -2.088,1.728 -4.824,2.592 -8.136,2.592 h -14.976 v -19.296 h 14.976 c 3.384,0 6.12,0.792 8.136,2.376 2.01601,1.584 3.096,3.888 3.096,6.84 0,3.24 -1.07999,5.76 -3.096,7.488 z" stroke-width="0" stroke-linejoin="miter" stroke-miterlimit="2" fill="#99c6ef" stroke="#99c6ef" transform="translate(0 316.8784) translate(287.23436799999996 27.50720000000001) scale(1.4) translate(-487.84062 56.232)"></path>
          <path id="path157474" style="font-style:normal;font-weight:700;font-size:72px;line-height:1;font-family:ComfortaaBoldAlt2;font-variant-ligatures:normal;text-align:center;text-anchor:middle" d="m 556.93587,0.288 c 5.544,0 10.22401,-1.944 14.112,-5.832 3.888,-3.888 5.904,-8.568 5.904,-14.112 0,-5.544 -2.016,-10.224 -5.904,-14.112 -3.88799,-3.888 -8.568,-5.904 -14.112,-5.904 -5.54399,0 -10.224,2.016 -14.11199,5.904 -3.88801,3.888 -5.832,8.568 -5.832,14.112 0,5.544 1.94399,10.224 5.832,14.112 3.88799,3.888 8.568,5.832 14.11199,5.832 z m 0,-33.048 c 3.60001,0 6.69601,1.296 9.28801,3.816 2.51999,2.592 3.816,5.688 3.816,9.288 0,3.6 -1.29601,6.696 -3.816,9.216 -2.592,2.592 -5.688,3.816 -9.28801,3.816 -3.6,0 -6.696,-1.224 -9.216,-3.816 -2.59199,-2.52 -3.816,-5.616 -3.816,-9.216 0,-3.6 1.22401,-6.696 3.816,-9.288 2.52,-2.52 5.616,-3.816 9.216,-3.816 z" stroke-width="0" stroke-linejoin="miter" stroke-miterlimit="2" fill="#99c6ef" stroke="#99c6ef" transform="translate(0 316.8784) translate(356.04613199999994 50.69120000000001) scale(1.4) translate(-536.99188 39.672)"></path>
          <path id="path157476" style="font-style:normal;font-weight:700;font-size:72px;line-height:1;font-family:ComfortaaBoldAlt2;font-variant-ligatures:normal;text-align:center;text-anchor:middle" d="m 619.63212,-33.768 c -3.88799,-3.888 -8.568,-5.904 -14.112,-5.904 -5.47199,0 -10.224,2.016 -14.11199,5.904 -3.88801,3.888 -5.832,8.568 -5.832,14.112 0,5.544 1.94399,10.224 5.832,14.112 3.88799,3.888 8.64,5.832 14.11199,5.832 4.968,0 9.36001,-1.584 13.10401,-4.824 v 1.368 c 0,1.008 0.288,1.8 1.00799,2.448 0.648,0.72 1.44001,1.008 2.448,1.008 0.936,0 1.72801,-0.288 2.44801,-1.008 0.64799,-0.648 1.00799,-1.44 1.00799,-2.448 v -16.488 c 0,-5.544 -1.944,-10.224 -5.904,-14.112 z m -14.112,27.144 c -3.6,0 -6.696,-1.224 -9.216,-3.816 -2.59199,-2.52 -3.816,-5.616 -3.816,-9.216 0,-3.6 1.22401,-6.696 3.816,-9.216 2.52,-2.592 5.616,-3.888 9.216,-3.888 3.60001,0 6.69601,1.296 9.21601,3.888 2.59199,2.52 3.888,5.616 3.888,9.216 0,3.6 -1.29601,6.696 -3.888,9.216 -2.52,2.592 -5.616,3.816 -9.21601,3.816 z" stroke-width="0" stroke-linejoin="miter" stroke-miterlimit="2" fill="#99c6ef" stroke="#99c6ef" transform="translate(0 316.8784) translate(424.064082 50.69120000000001) scale(1.4) translate(-585.57613 39.672)"></path>
          <path id="path157478" style="font-style:normal;font-weight:700;font-size:72px;line-height:1;font-family:ComfortaaBoldAlt2;font-variant-ligatures:normal;text-align:center;text-anchor:middle" d="m 658.42438,-40.464 c -6.048,0 -11.16001,2.16 -15.48,6.408 -4.24801,4.248 -6.336,9.36 -6.336,15.408 v 15.192 c 0,1.008 0.288,1.8 1.00799,2.448 0.648,0.72 1.44,1.008 2.44801,1.008 0.93599,0 1.72799,-0.288 2.376,-1.008 0.72,-0.648 1.07999,-1.44 1.07999,-2.448 v -15.192 c 0,-4.104 1.44,-7.632 4.32,-10.512 2.952,-2.952 6.48001,-4.392 10.58401,-4.392 0.93599,0 1.72799,-0.36 2.448,-1.008 0.648,-0.72 1.00799,-1.512 1.00799,-2.448 0,-0.936 -0.35999,-1.8 -1.00799,-2.448 -0.72001,-0.648 -1.51201,-1.008 -2.448,-1.008 z" stroke-width="0" stroke-linejoin="miter" stroke-miterlimit="2" fill="#99c6ef" stroke="#99c6ef" transform="translate(0 316.8784) translate(495.509232 49.58240000000001) scale(1.4) translate(-636.60838 40.464)"></path>
          <path id="path157480" style="font-style:normal;font-weight:700;font-size:72px;line-height:1;font-family:ComfortaaBoldAlt2;font-variant-ligatures:normal;text-align:center;text-anchor:middle" d="m 672.1955,-5.544 c 3.888,3.96 8.568,5.904 14.112,5.904 5.544,0 10.224,-1.944 14.112,-5.904 3.888,-3.888 5.904,-8.568 5.904,-14.112 v -33.12 c 0,-0.936 -0.36,-1.728 -1.08,-2.448 -0.648,-0.648 -1.44,-1.008 -2.376,-1.008 -1.008,0 -1.8,0.36 -2.448,1.008 -0.72,0.72 -1.008,1.512 -1.008,2.448 v 18 c -3.744,-3.24 -8.136,-4.824 -13.104,-4.824 -5.544,0 -10.224,1.944 -14.112,5.832 -3.888,3.888 -5.832,8.64 -5.832,14.112 0,5.544 1.944,10.224 5.832,14.112 z m 14.112,-27.144 c 3.6,0 6.696,1.296 9.216,3.816 2.592,2.52 3.888,5.616 3.888,9.216 0,3.6 -1.296,6.696 -3.888,9.288 -2.52,2.52 -5.616,3.816 -9.216,3.816 -3.6,0 -6.696,-1.296 -9.216,-3.816 -2.592,-2.592 -3.816,-5.688 -3.816,-9.288 0,-3.6 1.224,-6.696 3.816,-9.216 2.52,-2.52 5.616,-3.816 9.216,-3.816 z" stroke-width="0" stroke-linejoin="miter" stroke-miterlimit="2" fill="#99c6ef" stroke="#99c6ef" transform="translate(0 316.8784) translate(537.1664000000001 27.50720000000001) scale(1.4) translate(-666.3635 56.232)"></path>
        </g>
      </g>
    </g>
  </svg>