<svg width="312" height="115" viewBox="0 0 312 115" fill="none" xmlns="http://www.w3.org/2000/svg">
<rect width="100" height="22" rx="5" fill="#4D81D2"/>
<rect x="15" y="31" width="85" height="22" rx="5" fill="#285EBC"/>
<rect x="38" y="62" width="62" height="22" rx="5" fill="#1A49B2"/>
<rect x="50" y="93" width="50" height="22" rx="5" fill="#0D35A8"/>
<path d="M148.076 32.976L140.666 59.5H134.396L129.418 40.614L124.212 59.5L117.98 59.538L110.836 32.976H116.536L121.21 53.572L126.606 32.976H132.534L137.626 53.458L142.338 32.976H148.076ZM171.12 48.518C171.12 49.278 171.069 49.962 170.968 50.57H155.578C155.704 52.09 156.236 53.2807 157.174 54.142C158.111 55.0033 159.264 55.434 160.632 55.434C162.608 55.434 164.014 54.5853 164.85 52.888H170.588C169.98 54.9147 168.814 56.5867 167.092 57.904C165.369 59.196 163.254 59.842 160.746 59.842C158.719 59.842 156.895 59.3987 155.274 58.512C153.678 57.6 152.424 56.3207 151.512 54.674C150.625 53.0273 150.182 51.1273 150.182 48.974C150.182 46.7953 150.625 44.8827 151.512 43.236C152.398 41.5893 153.64 40.3227 155.236 39.436C156.832 38.5493 158.668 38.106 160.746 38.106C162.747 38.106 164.533 38.5367 166.104 39.398C167.7 40.2593 168.928 41.488 169.79 43.084C170.676 44.6547 171.12 46.466 171.12 48.518ZM165.61 46.998C165.584 45.63 165.09 44.5407 164.128 43.73C163.165 42.894 161.987 42.476 160.594 42.476C159.276 42.476 158.162 42.8813 157.25 43.692C156.363 44.4773 155.818 45.5793 155.616 46.998H165.61ZM197.005 32.976V59.5H191.685V48.214H180.323V59.5H175.003V32.976H180.323V43.882H191.685V32.976H197.005ZM204.939 35.94C204.002 35.94 203.216 35.6487 202.583 35.066C201.975 34.458 201.671 33.7107 201.671 32.824C201.671 31.9373 201.975 31.2027 202.583 30.62C203.216 30.012 204.002 29.708 204.939 29.708C205.876 29.708 206.649 30.012 207.257 30.62C207.89 31.2027 208.207 31.9373 208.207 32.824C208.207 33.7107 207.89 34.458 207.257 35.066C206.649 35.6487 205.876 35.94 204.939 35.94ZM207.561 38.448V59.5H202.241V38.448H207.561ZM221.595 54.598L226.915 38.448H232.577L224.787 59.5H218.327L210.575 38.448H216.275L221.595 54.598ZM255.135 48.518C255.135 49.278 255.085 49.962 254.983 50.57H239.593C239.72 52.09 240.252 53.2807 241.189 54.142C242.127 55.0033 243.279 55.434 244.647 55.434C246.623 55.434 248.029 54.5853 248.865 52.888H254.603C253.995 54.9147 252.83 56.5867 251.107 57.904C249.385 59.196 247.269 59.842 244.761 59.842C242.735 59.842 240.911 59.3987 239.289 58.512C237.693 57.6 236.439 56.3207 235.527 54.674C234.641 53.0273 234.197 51.1273 234.197 48.974C234.197 46.7953 234.641 44.8827 235.527 43.236C236.414 41.5893 237.655 40.3227 239.251 39.436C240.847 38.5493 242.684 38.106 244.761 38.106C246.763 38.106 248.549 38.5367 250.119 39.398C251.715 40.2593 252.944 41.488 253.805 43.084C254.692 44.6547 255.135 46.466 255.135 48.518ZM249.625 46.998C249.6 45.63 249.106 44.5407 248.143 43.73C247.181 42.894 246.003 42.476 244.609 42.476C243.292 42.476 242.177 42.8813 241.265 43.692C240.379 44.4773 239.834 45.5793 239.631 46.998H249.625ZM271.33 59.766C268.848 59.766 266.568 59.1833 264.49 58.018C262.413 56.8527 260.766 55.244 259.55 53.192C258.334 51.1147 257.726 48.7713 257.726 46.162C257.726 43.578 258.334 41.26 259.55 39.208C260.766 37.1307 262.413 35.5093 264.49 34.344C266.568 33.1787 268.848 32.596 271.33 32.596C273.838 32.596 276.118 33.1787 278.17 34.344C280.248 35.5093 281.882 37.1307 283.072 39.208C284.288 41.26 284.896 43.578 284.896 46.162C284.896 48.7713 284.288 51.1147 283.072 53.192C281.882 55.244 280.248 56.8527 278.17 58.018C276.093 59.1833 273.813 59.766 271.33 59.766ZM271.33 55.016C272.926 55.016 274.332 54.6613 275.548 53.952C276.764 53.2173 277.714 52.1787 278.398 50.836C279.082 49.4933 279.424 47.9353 279.424 46.162C279.424 44.3887 279.082 42.8433 278.398 41.526C277.714 40.1833 276.764 39.1573 275.548 38.448C274.332 37.7387 272.926 37.384 271.33 37.384C269.734 37.384 268.316 37.7387 267.074 38.448C265.858 39.1573 264.908 40.1833 264.224 41.526C263.54 42.8433 263.198 44.3887 263.198 46.162C263.198 47.9353 263.54 49.4933 264.224 50.836C264.908 52.1787 265.858 53.2173 267.074 53.952C268.316 54.6613 269.734 55.016 271.33 55.016ZM300.52 38.144C303.028 38.144 305.055 38.942 306.6 40.538C308.146 42.1087 308.918 44.3127 308.918 47.15V59.5H303.598V47.872C303.598 46.2 303.18 44.9207 302.344 44.034C301.508 43.122 300.368 42.666 298.924 42.666C297.455 42.666 296.29 43.122 295.428 44.034C294.592 44.9207 294.174 46.2 294.174 47.872V59.5H288.854V38.448H294.174V41.07C294.884 40.158 295.783 39.4487 296.872 38.942C297.987 38.41 299.203 38.144 300.52 38.144Z" fill="black"/>
<path d="M188.437 71.46L188.112 74.1165H190.901L190.796 74.925H188.013L187.678 77.664H191.137L191.033 78.5H186.539L187.507 70.6185H191.995L191.891 71.46H188.437ZM193.548 78.5L194.532 70.3985H195.495L194.51 78.5H193.548ZM200.144 73.5555C199.913 73.5555 199.7 73.6032 199.506 73.6985C199.311 73.7938 199.139 73.9258 198.989 74.0945C198.838 74.2595 198.71 74.4557 198.604 74.683C198.497 74.9067 198.415 75.1487 198.356 75.409C198.921 75.3393 199.374 75.2605 199.715 75.1725C200.056 75.0808 200.318 74.9837 200.501 74.881C200.685 74.7747 200.806 74.661 200.864 74.54C200.923 74.419 200.952 74.2925 200.952 74.1605C200.952 74.0945 200.938 74.0267 200.908 73.957C200.879 73.8837 200.831 73.8177 200.765 73.759C200.703 73.7003 200.62 73.6527 200.518 73.616C200.415 73.5757 200.29 73.5555 200.144 73.5555ZM201.695 77.4715C201.508 77.6658 201.324 77.8327 201.145 77.972C200.965 78.1077 200.782 78.2213 200.595 78.313C200.411 78.4047 200.217 78.4707 200.012 78.511C199.81 78.555 199.592 78.577 199.357 78.577C199.038 78.577 198.752 78.5238 198.499 78.4175C198.246 78.3112 198.032 78.1608 197.856 77.9665C197.68 77.7685 197.544 77.5302 197.449 77.2515C197.353 76.9728 197.306 76.6612 197.306 76.3165C197.306 76.0305 197.335 75.7463 197.394 75.464C197.456 75.178 197.544 74.9067 197.658 74.65C197.775 74.3933 197.916 74.155 198.081 73.935C198.25 73.715 198.441 73.5262 198.653 73.3685C198.87 73.2072 199.106 73.0807 199.363 72.989C199.623 72.8973 199.902 72.8515 200.199 72.8515C200.481 72.8515 200.725 72.8918 200.93 72.9725C201.136 73.0532 201.304 73.1558 201.436 73.2805C201.568 73.4052 201.665 73.5427 201.728 73.693C201.794 73.8433 201.827 73.9863 201.827 74.122C201.827 74.364 201.777 74.5877 201.678 74.793C201.579 74.9947 201.398 75.178 201.134 75.343C200.87 75.5043 200.507 75.6455 200.045 75.7665C199.583 75.8875 198.989 75.9847 198.263 76.058C198.263 76.0983 198.261 76.1387 198.257 76.179C198.257 76.2157 198.257 76.2542 198.257 76.2945C198.257 76.7858 198.364 77.1617 198.576 77.422C198.793 77.6787 199.117 77.807 199.55 77.807C199.726 77.807 199.882 77.7887 200.017 77.752C200.157 77.7153 200.279 77.6713 200.386 77.62C200.496 77.565 200.591 77.5063 200.672 77.444C200.756 77.378 200.831 77.3193 200.897 77.268C200.967 77.213 201.031 77.1672 201.09 77.1305C201.148 77.0938 201.207 77.0755 201.266 77.0755C201.335 77.0755 201.398 77.1067 201.453 77.169L201.695 77.4715ZM208.897 72.9285L206.103 78.5H205.289L203.848 72.9285H204.64C204.713 72.9285 204.772 72.9487 204.816 72.989C204.86 73.0293 204.889 73.077 204.904 73.132L205.729 76.718C205.751 76.8573 205.769 76.9948 205.784 77.1305C205.799 77.2662 205.811 77.4037 205.822 77.543C205.863 77.4073 205.907 77.2717 205.954 77.136C206.002 77.0003 206.057 76.861 206.119 76.718L207.841 73.132C207.87 73.0733 207.911 73.0257 207.962 72.989C208.013 72.9487 208.072 72.9285 208.138 72.9285H208.897ZM213.995 73.6105C213.914 73.5922 213.833 73.5812 213.753 73.5775C213.676 73.5702 213.599 73.5665 213.522 73.5665C213.302 73.5665 213.089 73.6032 212.884 73.6765C212.678 73.7462 212.486 73.8452 212.306 73.9735C212.127 74.1018 211.963 74.2558 211.817 74.4355C211.67 74.6115 211.544 74.8058 211.437 75.0185C211.335 75.2312 211.254 75.4585 211.195 75.7005C211.137 75.9388 211.107 76.1845 211.107 76.4375C211.107 77.3212 211.39 77.763 211.954 77.763C212.134 77.763 212.31 77.708 212.482 77.598C212.655 77.4843 212.818 77.3285 212.972 77.1305C213.129 76.9288 213.274 76.6923 213.406 76.421C213.538 76.146 213.656 75.8453 213.758 75.519L213.995 73.6105ZM213.621 77.0315C213.489 77.2662 213.346 77.4788 213.192 77.6695C213.041 77.8602 212.88 78.0233 212.708 78.159C212.539 78.291 212.359 78.3937 212.169 78.467C211.982 78.5403 211.787 78.577 211.586 78.577C211.366 78.577 211.166 78.5348 210.986 78.4505C210.807 78.3625 210.653 78.236 210.524 78.071C210.4 77.9023 210.302 77.697 210.233 77.455C210.163 77.2093 210.128 76.9288 210.128 76.6135C210.128 76.2835 210.169 75.9627 210.249 75.651C210.334 75.3357 210.451 75.0387 210.601 74.76C210.755 74.4813 210.939 74.2265 211.151 73.9955C211.364 73.7608 211.6 73.5592 211.861 73.3905C212.125 73.2182 212.407 73.0862 212.708 72.9945C213.008 72.8992 213.324 72.8515 213.654 72.8515C213.892 72.8515 214.123 72.8717 214.347 72.912C214.574 72.9487 214.798 73.0147 215.018 73.11L214.352 78.5H213.846C213.718 78.5 213.63 78.467 213.582 78.401C213.538 78.335 213.516 78.2543 213.516 78.159L213.621 77.0315ZM217.556 77.4495C217.556 77.4275 217.556 77.4 217.556 77.367C217.556 77.3303 217.558 77.279 217.561 77.213C217.569 77.147 217.578 77.0608 217.589 76.9545C217.604 76.8482 217.622 76.7088 217.644 76.5365L217.985 73.748H217.363C217.312 73.748 217.27 73.7315 217.237 73.6985C217.208 73.6618 217.197 73.6068 217.204 73.5335L217.248 73.143L218.106 73.0275L218.524 71.306C218.542 71.251 218.57 71.207 218.606 71.174C218.647 71.1373 218.696 71.119 218.755 71.119H219.266L219.03 73.0385H220.493L220.41 73.748H218.942L218.606 76.487C218.588 76.6373 218.573 76.7583 218.562 76.85C218.551 76.9417 218.542 77.015 218.535 77.07C218.531 77.125 218.528 77.1635 218.524 77.1855C218.524 77.2075 218.524 77.224 218.524 77.235C218.524 77.422 218.568 77.5613 218.656 77.653C218.744 77.741 218.861 77.785 219.008 77.785C219.107 77.785 219.191 77.7722 219.261 77.7465C219.334 77.7172 219.398 77.686 219.453 77.653C219.508 77.62 219.554 77.5907 219.591 77.565C219.628 77.5357 219.659 77.521 219.684 77.521C219.717 77.521 219.741 77.5283 219.756 77.543C219.774 77.5577 219.791 77.5815 219.805 77.6145L220.014 78.082C219.835 78.2397 219.629 78.3643 219.398 78.456C219.171 78.544 218.942 78.588 218.711 78.588C218.355 78.588 218.075 78.4908 217.869 78.2965C217.668 78.1022 217.563 77.8198 217.556 77.4495ZM225.05 73.5555C224.819 73.5555 224.606 73.6032 224.412 73.6985C224.217 73.7938 224.045 73.9258 223.895 74.0945C223.744 74.2595 223.616 74.4557 223.51 74.683C223.403 74.9067 223.321 75.1487 223.262 75.409C223.827 75.3393 224.28 75.2605 224.621 75.1725C224.962 75.0808 225.224 74.9837 225.407 74.881C225.59 74.7747 225.711 74.661 225.77 74.54C225.829 74.419 225.858 74.2925 225.858 74.1605C225.858 74.0945 225.843 74.0267 225.814 73.957C225.785 73.8837 225.737 73.8177 225.671 73.759C225.609 73.7003 225.526 73.6527 225.424 73.616C225.321 73.5757 225.196 73.5555 225.05 73.5555ZM226.601 77.4715C226.414 77.6658 226.23 77.8327 226.051 77.972C225.871 78.1077 225.688 78.2213 225.501 78.313C225.317 78.4047 225.123 78.4707 224.918 78.511C224.716 78.555 224.498 78.577 224.263 78.577C223.944 78.577 223.658 78.5238 223.405 78.4175C223.152 78.3112 222.938 78.1608 222.762 77.9665C222.586 77.7685 222.45 77.5302 222.355 77.2515C222.259 76.9728 222.212 76.6612 222.212 76.3165C222.212 76.0305 222.241 75.7463 222.3 75.464C222.362 75.178 222.45 74.9067 222.564 74.65C222.681 74.3933 222.822 74.155 222.987 73.935C223.156 73.715 223.346 73.5262 223.559 73.3685C223.775 73.2072 224.012 73.0807 224.269 72.989C224.529 72.8973 224.808 72.8515 225.105 72.8515C225.387 72.8515 225.631 72.8918 225.836 72.9725C226.041 73.0532 226.21 73.1558 226.342 73.2805C226.474 73.4052 226.571 73.5427 226.634 73.693C226.7 73.8433 226.733 73.9863 226.733 74.122C226.733 74.364 226.683 74.5877 226.584 74.793C226.485 74.9947 226.304 75.178 226.04 75.343C225.776 75.5043 225.413 75.6455 224.951 75.7665C224.489 75.8875 223.895 75.9847 223.169 76.058C223.169 76.0983 223.167 76.1387 223.163 76.179C223.163 76.2157 223.163 76.2542 223.163 76.2945C223.163 76.7858 223.269 77.1617 223.482 77.422C223.698 77.6787 224.023 77.807 224.456 77.807C224.632 77.807 224.787 77.7887 224.923 77.752C225.062 77.7153 225.185 77.6713 225.292 77.62C225.402 77.565 225.497 77.5063 225.578 77.444C225.662 77.378 225.737 77.3193 225.803 77.268C225.873 77.213 225.937 77.1672 225.996 77.1305C226.054 77.0938 226.113 77.0755 226.172 77.0755C226.241 77.0755 226.304 77.1067 226.359 77.169L226.601 77.4715ZM237.562 72.9285L233.8 80.161C233.76 80.238 233.712 80.2948 233.657 80.3315C233.606 80.3682 233.54 80.3865 233.459 80.3865H232.738L233.948 78.17L232.502 72.9285H233.31C233.391 72.9285 233.45 72.9487 233.486 72.989C233.523 73.0257 233.551 73.0733 233.569 73.132L234.465 76.641C234.484 76.718 234.498 76.795 234.509 76.872C234.52 76.949 234.53 77.026 234.537 77.103C234.57 77.026 234.603 76.949 234.636 76.872C234.669 76.7913 234.704 76.7125 234.74 76.6355L236.5 73.121C236.53 73.0623 236.57 73.0165 236.621 72.9835C236.676 72.9468 236.731 72.9285 236.786 72.9285H237.562ZM241.052 77.8125C241.32 77.8125 241.562 77.7392 241.778 77.5925C241.998 77.4458 242.185 77.2515 242.339 77.0095C242.497 76.7638 242.618 76.4815 242.702 76.1625C242.786 75.8435 242.829 75.5098 242.829 75.1615C242.829 74.6482 242.726 74.2632 242.521 74.0065C242.319 73.7462 242.027 73.616 241.646 73.616C241.375 73.616 241.129 73.6893 240.909 73.836C240.693 73.979 240.508 74.1715 240.354 74.4135C240.2 74.6555 240.08 74.936 239.996 75.255C239.912 75.574 239.87 75.9077 239.87 76.256C239.87 76.7693 239.97 77.158 240.172 77.422C240.374 77.6823 240.667 77.8125 241.052 77.8125ZM240.959 78.577C240.654 78.577 240.376 78.5257 240.123 78.423C239.87 78.3167 239.651 78.1645 239.468 77.9665C239.285 77.7685 239.142 77.5265 239.039 77.2405C238.936 76.9545 238.885 76.6282 238.885 76.2615C238.885 75.7922 238.958 75.3503 239.105 74.936C239.252 74.5217 239.453 74.1605 239.71 73.8525C239.967 73.5408 240.267 73.2952 240.612 73.1155C240.96 72.9358 241.334 72.846 241.734 72.846C242.038 72.846 242.317 72.8992 242.57 73.0055C242.823 73.1082 243.041 73.2585 243.225 73.4565C243.408 73.6545 243.551 73.8965 243.654 74.1825C243.756 74.4685 243.808 74.793 243.808 75.156C243.808 75.6217 243.734 76.0617 243.588 76.476C243.441 76.8903 243.239 77.2533 242.983 77.565C242.73 77.8767 242.429 78.1242 242.081 78.3075C241.732 78.4872 241.358 78.577 240.959 78.577ZM250.947 72.9285L250.276 78.5H249.792C249.554 78.5 249.435 78.3827 249.435 78.148L249.517 77.1305C249.224 77.6072 248.892 77.9683 248.522 78.214C248.155 78.456 247.777 78.577 247.389 78.577C247.154 78.577 246.947 78.5312 246.767 78.4395C246.588 78.3442 246.441 78.2067 246.327 78.027C246.217 77.8473 246.142 77.6273 246.102 77.367C246.061 77.1067 246.063 76.8078 246.107 76.4705L246.525 72.9285H247.499L247.081 76.4705C247.029 76.9068 247.055 77.2313 247.158 77.444C247.264 77.6567 247.462 77.763 247.752 77.763C247.92 77.763 248.095 77.7172 248.274 77.6255C248.454 77.5338 248.626 77.4037 248.791 77.235C248.956 77.0663 249.11 76.8628 249.253 76.6245C249.4 76.3825 249.525 76.1148 249.627 75.8215L249.974 72.9285H250.947ZM254.449 74.4795C254.595 74.1678 254.753 73.8983 254.922 73.671C255.094 73.44 255.274 73.2603 255.461 73.132C255.648 73 255.84 72.9212 256.038 72.8955C256.236 72.8662 256.438 72.8955 256.643 72.9835L256.467 73.924C255.99 73.7333 255.569 73.803 255.202 74.133C254.839 74.463 254.544 75.0588 254.317 75.9205L254.009 78.5H253.052L253.723 72.923H254.207C254.43 72.923 254.542 73.033 254.542 73.253L254.449 74.4795ZM269.44 72.9285L267.102 78.5H266.36C266.272 78.5 266.217 78.4377 266.195 78.313L265.518 74.5345C265.511 74.4722 265.504 74.4135 265.496 74.3585C265.493 74.2998 265.487 74.2393 265.48 74.177C265.44 74.298 265.396 74.419 265.348 74.54L263.742 78.313C263.691 78.4377 263.615 78.5 263.516 78.5H262.801L261.822 72.9285H262.554C262.627 72.9285 262.686 72.9468 262.73 72.9835C262.774 73.0202 262.803 73.0697 262.818 73.132L263.329 76.718C263.337 76.8463 263.344 76.971 263.351 77.092C263.359 77.213 263.364 77.3322 263.368 77.4495C263.408 77.3322 263.452 77.213 263.5 77.092C263.548 76.971 263.597 76.8463 263.648 76.718L265.172 73.11C265.19 73.055 265.225 73.0092 265.276 72.9725C265.328 72.9358 265.385 72.9175 265.447 72.9175H265.854C265.924 72.9175 265.979 72.9358 266.019 72.9725C266.059 73.0092 266.083 73.055 266.09 73.11L266.717 76.718C266.736 76.8463 266.752 76.971 266.767 77.092C266.782 77.2093 266.794 77.3285 266.805 77.4495C266.838 77.3322 266.873 77.213 266.91 77.092C266.95 76.971 266.992 76.8463 267.036 76.718L268.45 73.132C268.468 73.0733 268.503 73.0257 268.554 72.989C268.609 72.9487 268.668 72.9285 268.73 72.9285H269.44ZM273.079 77.8125C273.347 77.8125 273.589 77.7392 273.805 77.5925C274.025 77.4458 274.212 77.2515 274.366 77.0095C274.524 76.7638 274.645 76.4815 274.729 76.1625C274.813 75.8435 274.855 75.5098 274.855 75.1615C274.855 74.6482 274.753 74.2632 274.547 74.0065C274.346 73.7462 274.054 73.616 273.673 73.616C273.402 73.616 273.156 73.6893 272.936 73.836C272.72 73.979 272.534 74.1715 272.38 74.4135C272.226 74.6555 272.107 74.936 272.023 75.255C271.939 75.574 271.896 75.9077 271.896 76.256C271.896 76.7693 271.997 77.158 272.199 77.422C272.401 77.6823 272.694 77.8125 273.079 77.8125ZM272.985 78.577C272.681 78.577 272.402 78.5257 272.149 78.423C271.896 78.3167 271.678 78.1645 271.495 77.9665C271.312 77.7685 271.169 77.5265 271.066 77.2405C270.963 76.9545 270.912 76.6282 270.912 76.2615C270.912 75.7922 270.985 75.3503 271.132 74.936C271.279 74.5217 271.48 74.1605 271.737 73.8525C271.994 73.5408 272.294 73.2952 272.639 73.1155C272.987 72.9358 273.361 72.846 273.761 72.846C274.065 72.846 274.344 72.8992 274.597 73.0055C274.85 73.1082 275.068 73.2585 275.251 73.4565C275.435 73.6545 275.578 73.8965 275.68 74.1825C275.783 74.4685 275.834 74.793 275.834 75.156C275.834 75.6217 275.761 76.0617 275.614 76.476C275.468 76.8903 275.266 77.2533 275.009 77.565C274.756 77.8767 274.456 78.1242 274.107 78.3075C273.759 78.4872 273.385 78.577 272.985 78.577ZM279.333 74.4795C279.48 74.1678 279.637 73.8983 279.806 73.671C279.978 73.44 280.158 73.2603 280.345 73.132C280.532 73 280.725 72.9212 280.923 72.8955C281.121 72.8662 281.322 72.8955 281.528 72.9835L281.352 73.924C280.875 73.7333 280.453 73.803 280.087 74.133C279.724 74.463 279.428 75.0588 279.201 75.9205L278.893 78.5H277.936L278.607 72.923H279.091C279.315 72.923 279.427 73.033 279.427 73.253L279.333 74.4795ZM284.963 70.3985L284.38 75.167H284.545C284.622 75.167 284.684 75.1578 284.732 75.1395C284.779 75.1175 284.831 75.0753 284.886 75.013L286.734 73.1265C286.785 73.0642 286.84 73.0165 286.899 72.9835C286.957 72.9468 287.029 72.9285 287.113 72.9285H287.982L285.832 75.112C285.722 75.2403 285.61 75.3375 285.496 75.4035C285.555 75.4475 285.604 75.4988 285.645 75.5575C285.689 75.6125 285.729 75.6767 285.766 75.75L287.438 78.5H286.596C286.516 78.5 286.448 78.4872 286.393 78.4615C286.341 78.4322 286.299 78.3808 286.266 78.3075L284.847 76.025C284.803 75.948 284.757 75.8985 284.71 75.8765C284.662 75.8508 284.587 75.838 284.484 75.838H284.297L283.973 78.5H283.005L284 70.3985H284.963ZM291.405 73.7425L290.838 78.324L290.58 79.4625C290.539 79.5945 290.479 79.6953 290.398 79.765C290.321 79.8383 290.213 79.875 290.074 79.875H289.689L290.442 73.759L289.903 73.693C289.826 73.6747 289.768 73.649 289.727 73.616C289.687 73.5793 289.67 73.5243 289.678 73.451L289.727 73.0385H290.53L290.569 72.736C290.605 72.428 290.684 72.1365 290.805 71.8615C290.926 71.5865 291.086 71.3463 291.284 71.141C291.485 70.9357 291.726 70.7743 292.004 70.657C292.283 70.536 292.6 70.4755 292.956 70.4755C293.22 70.4755 293.469 70.4865 293.704 70.5085C293.942 70.5305 294.177 70.5433 294.408 70.547H295.068L294.089 78.5H293.137L294.023 71.262C293.858 71.2473 293.689 71.2308 293.517 71.2125C293.344 71.1942 293.178 71.185 293.016 71.185C292.587 71.185 292.239 71.3207 291.971 71.592C291.707 71.8597 291.546 72.241 291.487 72.736L291.454 73.0385H292.763L292.681 73.7425H291.405ZM299.07 77.8125C299.338 77.8125 299.58 77.7392 299.796 77.5925C300.016 77.4458 300.203 77.2515 300.357 77.0095C300.515 76.7638 300.636 76.4815 300.72 76.1625C300.804 75.8435 300.846 75.5098 300.846 75.1615C300.846 74.6482 300.744 74.2632 300.538 74.0065C300.337 73.7462 300.045 73.616 299.664 73.616C299.393 73.616 299.147 73.6893 298.927 73.836C298.711 73.979 298.525 74.1715 298.371 74.4135C298.217 74.6555 298.098 74.936 298.014 75.255C297.93 75.574 297.887 75.9077 297.887 76.256C297.887 76.7693 297.988 77.158 298.19 77.422C298.392 77.6823 298.685 77.8125 299.07 77.8125ZM298.976 78.577C298.672 78.577 298.393 78.5257 298.14 78.423C297.887 78.3167 297.669 78.1645 297.486 77.9665C297.303 77.7685 297.16 77.5265 297.057 77.2405C296.954 76.9545 296.903 76.6282 296.903 76.2615C296.903 75.7922 296.976 75.3503 297.123 74.936C297.27 74.5217 297.471 74.1605 297.728 73.8525C297.985 73.5408 298.285 73.2952 298.63 73.1155C298.978 72.9358 299.352 72.846 299.752 72.846C300.056 72.846 300.335 72.8992 300.588 73.0055C300.841 73.1082 301.059 73.2585 301.242 73.4565C301.426 73.6545 301.569 73.8965 301.671 74.1825C301.774 74.4685 301.825 74.793 301.825 75.156C301.825 75.6217 301.752 76.0617 301.605 76.476C301.459 76.8903 301.257 77.2533 301 77.565C300.747 77.8767 300.447 78.1242 300.098 78.3075C299.75 78.4872 299.376 78.577 298.976 78.577ZM311.574 72.9285L309.236 78.5H308.494C308.406 78.5 308.351 78.4377 308.329 78.313L307.652 74.5345C307.645 74.4722 307.638 74.4135 307.63 74.3585C307.627 74.2998 307.621 74.2393 307.614 74.177C307.573 74.298 307.529 74.419 307.482 74.54L305.876 78.313C305.824 78.4377 305.749 78.5 305.65 78.5H304.935L303.956 72.9285H304.688C304.761 72.9285 304.82 72.9468 304.864 72.9835C304.908 73.0202 304.937 73.0697 304.952 73.132L305.463 76.718C305.471 76.8463 305.478 76.971 305.485 77.092C305.493 77.213 305.498 77.3322 305.502 77.4495C305.542 77.3322 305.586 77.213 305.634 77.092C305.681 76.971 305.731 76.8463 305.782 76.718L307.306 73.11C307.324 73.055 307.359 73.0092 307.41 72.9725C307.462 72.9358 307.518 72.9175 307.581 72.9175H307.988C308.057 72.9175 308.112 72.9358 308.153 72.9725C308.193 73.0092 308.217 73.055 308.224 73.11L308.851 76.718C308.87 76.8463 308.886 76.971 308.901 77.092C308.915 77.2093 308.928 77.3285 308.939 77.4495C308.972 77.3322 309.007 77.213 309.044 77.092C309.084 76.971 309.126 76.8463 309.17 76.718L310.584 73.132C310.602 73.0733 310.637 73.0257 310.688 72.989C310.743 72.9487 310.802 72.9285 310.864 72.9285H311.574Z" fill="#737373"/>
</svg>
