<svg width="435" height="369" viewBox="0 0 435 369" fill="none" xmlns="http://www.w3.org/2000/svg">
<path d="M140.625 164.146C143.329 172.56 144.982 183.002 145.583 195.472C146.334 207.791 146.71 245.652 146.71 309.053C107.648 313.711 87.8908 316.265 87.4401 316.716C86.764 317.392 96.4544 188.035 95.7783 187.359L140.625 164.146Z" fill="#F6B399"/>
<path d="M427.733 279.983C427.733 280.734 426.531 310.406 424.127 369H117.637C133.863 324.228 147.31 287.044 157.977 257.447C174.203 212.825 212.965 202.008 236.853 202.008L359.449 205.839C393.253 205.839 427.733 231.305 427.733 279.983Z" fill="#3573C7"/>
<path d="M364.407 211.698C361.026 222.064 354.265 231.304 344.124 236.037C338.941 238.516 333.532 239.868 327.898 240.769C321.814 241.896 315.504 242.572 308.968 242.797C302.658 243.248 296.348 243.023 290.263 243.023C284.404 242.797 278.77 242.798 273.136 242.347C264.572 241.671 255.783 240.093 248.346 235.586C249.022 237.163 246.318 237.84 245.642 236.262C245.191 234.91 244.74 233.633 244.289 232.431C243.613 230.628 255.558 229.276 255.107 227.924C252.402 216.881 245.416 202.909 248.797 192.091C250.599 187.133 248.121 184.204 252.177 180.823C256.233 177.443 261.192 175.415 266.15 174.062C278.094 170.457 290.263 167.302 302.433 165.499C314.602 163.471 326.997 162.569 339.392 163.921C344.35 164.372 349.533 165.499 353.815 168.203C358.547 170.907 361.702 175.415 363.731 180.373C367.787 190.063 367.787 201.557 364.407 211.698Z" fill="#3573C7"/>
<path d="M344.578 183.978C343.902 193.894 324.972 206.514 318.437 210.12C305.817 217.557 293.196 224.769 280.576 232.205C279.224 233.107 277.872 232.881 276.069 232.431C274.266 232.205 265.702 222.515 264.801 220.712C257.364 205.613 268.857 197.275 281.252 186.232C287.562 180.823 294.999 176.767 302.887 174.288C310.774 172.034 319.338 171.133 327.676 172.26C331.507 172.936 335.564 173.612 338.944 175.415C343.451 177.668 345.029 180.598 344.578 183.978Z" fill="#36174D"/>
<path d="M278.545 233.333C277.869 234.009 277.193 234.009 276.517 233.333C270.657 228.6 266.601 221.84 265.249 214.403C265.023 212.6 267.502 211.698 267.953 213.501C269.305 220.487 272.911 227.023 278.545 231.53C278.996 231.981 278.996 232.882 278.545 233.333Z" fill="#36174D"/>
<path d="M337.139 178.119C336.087 181.274 334.66 184.279 332.857 187.133C331.279 189.612 329.026 193.218 325.871 193.669C324.294 194.12 322.265 193.218 320.688 192.542C318.885 191.941 317.007 191.34 315.054 190.739C311.298 189.687 307.542 188.711 303.786 187.809C296.274 185.856 288.611 184.279 280.799 183.077C273.362 181.725 265.925 181.049 258.488 180.373C253.079 179.922 246.994 178.795 243.163 174.288C239.783 174.288 236.403 173.837 233.473 171.583C230.544 169.33 228.515 165.949 227.839 162.118C227.389 158.287 228.29 154.456 230.543 151.526C232.121 149.723 233.924 148.371 235.952 147.695C234.825 146.568 234.149 144.766 234.374 143.188C234.374 140.934 235.727 139.357 237.304 138.455C235.276 135.075 234.6 131.019 235.051 127.187C236.403 117.497 244.516 112.539 252.403 110.511C256.911 109.384 261.643 109.159 265.925 110.736C268.404 111.863 270.658 113.215 272.235 115.243C272.686 114.342 273.137 113.215 274.038 112.539C275.616 110.961 277.644 110.511 279.672 110.511C281.475 110.736 284.63 111.412 286.658 112.764C286.959 112.464 287.259 112.163 287.56 111.863C292.067 107.356 299.278 107.356 304.912 109.159C311.223 111.412 316.631 115.919 321.364 120.877C330.604 130.793 337.815 143.639 339.393 157.836C340.069 164.597 339.393 171.583 337.139 178.119Z" fill="#36174D"/>
<path d="M288.237 205.164C311.013 205.164 329.478 185.791 329.478 161.894C329.478 137.997 311.013 118.625 288.237 118.625C265.46 118.625 246.996 137.997 246.996 161.894C246.996 185.791 265.46 205.164 288.237 205.164Z" fill="#F6B399"/>
<path d="M311.898 225.219L285.981 231.98L280.347 221.839L278.995 219.134L275.84 213.5L300.179 201.105L311.898 225.219Z" fill="#F6B399"/>
<path d="M319.786 179.021C319.786 201.332 303.786 218.009 279.447 219.361C257.362 220.488 240.234 205.614 240.234 183.303C240.234 160.992 257.136 138.682 279.447 138.682C301.758 138.682 319.786 156.71 319.786 179.021Z" fill="#F6B399"/>
<path d="M215.22 350.295H84.5107C68.7354 350.295 53.8615 337.675 51.1572 321.899L37.6356 245.727C34.9312 229.952 45.2981 217.332 61.0734 217.332H191.783C207.558 217.332 222.431 229.952 225.135 245.727L238.657 321.899C241.361 337.675 230.995 350.295 215.22 350.295Z" fill="#36174D"/>
<path d="M271.332 331.591C271.332 334.595 271.332 337.675 271.332 340.83C271.332 341.732 270.431 342.183 269.53 342.183C262.769 340.83 255.858 340.305 248.796 340.605C248.796 341.056 248.796 341.507 248.796 341.957C248.796 343.76 246.092 343.76 246.092 341.957C246.092 338.952 246.017 335.873 245.867 332.717C245.867 331.591 246.093 330.464 246.994 329.562C248.121 328.661 249.698 328.886 250.825 329.112C257.285 329.412 263.671 329.713 269.981 330.013C270.657 330.239 271.332 330.689 271.332 331.591Z" fill="#EE201C"/>
<path d="M305.138 369H85.4118C76.3974 369 68.9609 361.789 68.9609 352.549C68.9609 343.535 76.3974 336.098 85.4118 336.098H305.138C314.153 336.098 321.59 343.535 321.59 352.549C321.59 361.789 314.153 369 305.138 369Z" fill="#36174D"/>
<path d="M144.455 296.208C145.807 304.096 140.624 310.631 132.511 310.631C124.623 310.631 116.961 304.096 115.609 296.208C114.256 288.095 119.44 281.56 127.553 281.56C135.44 281.56 143.103 288.095 144.455 296.208Z" fill="white"/>
<path d="M258.488 183.303C260.106 183.303 261.418 181.991 261.418 180.373C261.418 178.755 260.106 177.443 258.488 177.443C256.87 177.443 255.559 178.755 255.559 180.373C255.559 181.991 256.87 183.303 258.488 183.303Z" fill="#36174D"/>
<path d="M286.434 190.289C288.052 190.289 289.363 188.977 289.363 187.359C289.363 185.741 288.052 184.43 286.434 184.43C284.816 184.43 283.504 185.741 283.504 187.359C283.504 188.977 284.816 190.289 286.434 190.289Z" fill="#36174D"/>
<path d="M268.631 169.105C267.955 170.682 266.152 171.133 264.8 170.682C263.222 170.232 262.096 169.33 260.969 168.203C260.067 167.527 258.94 166.626 257.813 165.95C256.912 165.048 255.785 164.598 254.433 164.147C246.771 162.119 258.039 157.837 262.546 159.865C264.8 160.766 266.602 162.569 267.955 164.823C268.631 166.175 269.307 167.753 268.631 169.105Z" fill="#36174D"/>
<path fill-rule="evenodd" clip-rule="evenodd" d="M255.56 192.318C248.574 192.318 242.715 186.684 242.715 179.697C242.715 172.711 248.574 167.077 255.56 167.077C262.546 167.077 268.181 172.711 268.181 179.697C268.181 186.684 262.546 192.318 255.56 192.318ZM255.56 169.782C249.926 169.782 245.645 174.289 245.645 179.697C245.645 185.106 249.926 189.613 255.56 189.613C260.969 189.613 265.251 185.106 265.251 179.697C265.251 174.289 260.969 169.782 255.56 169.782Z" fill="white"/>
<path d="M269.079 185.557C268.177 187.585 266.825 188.937 265.022 190.289C264.346 190.74 263.445 191.191 263.219 192.317C262.994 192.993 263.219 193.895 263.67 194.571C265.022 195.698 262.994 197.726 261.867 196.374C260.515 195.022 260.064 192.768 260.74 190.965C261.642 188.937 263.67 188.036 265.248 186.458C268.628 182.852 267.05 177.669 265.248 173.387C264.571 171.584 267.276 170.908 267.952 172.711C269.755 176.767 271.107 181.275 269.079 185.557Z" fill="#EE796A"/>
<path d="M297.026 182.401C293.871 179.922 290.715 177.443 286.659 176.767C284.631 176.542 282.602 175.866 281.701 173.838C281.025 171.584 282.152 168.654 284.631 167.978C286.884 167.302 292.067 170.908 293.87 172.035C296.8 174.288 298.828 177.218 299.504 180.824C299.73 182.176 298.152 183.303 297.026 182.401Z" fill="#36174D"/>
<path d="M336.913 159.865C336.612 161.818 336.237 163.771 335.786 165.724C334.884 169.555 333.758 173.612 331.504 176.767C327.448 182.626 324.293 188.486 317.306 188.486C317.081 188.711 315.278 190.739 315.053 190.739C314.151 191.866 315.278 192.317 314.151 193.218C313.25 193.894 307.165 195.923 306.038 195.923C304.912 196.148 305.137 190.739 304.912 189.612C304.686 188.486 304.911 187.359 305.137 186.232C305.587 182.401 306.94 178.119 310.095 175.64C307.841 172.485 308.743 168.203 311.672 165.724C311.071 165.574 310.47 165.424 309.869 165.274C306.489 164.147 304.01 160.766 304.01 157.386C300.629 158.963 297.024 159.865 293.193 159.865C289.587 159.64 285.756 158.513 282.826 156.034C280.798 154.456 278.77 151.977 278.544 149.273C276.967 150.174 274.713 150.4 272.91 149.498C271.333 148.597 270.206 146.794 269.981 144.991C267.051 146.118 264.121 146.794 260.966 146.569C258.262 146.343 255.557 145.442 253.304 143.864C251.05 142.061 249.923 139.582 249.473 136.653C249.022 133.723 249.022 130.343 250.374 127.638C251.276 125.835 252.853 124.483 254.656 123.807C254.656 123.356 254.881 122.981 255.332 122.68C257.811 120.878 260.741 119.976 263.67 119.3C267.126 118.549 270.582 117.873 274.037 117.272C280.798 116.145 287.784 115.694 294.32 117.497C295.672 117.948 296.949 118.399 298.151 118.849C303.109 119.525 308.066 120.652 312.574 123.356C317.306 126.061 320.686 130.117 323.165 135.075C324.518 137.78 325.645 140.484 326.997 143.414C327.898 144.916 328.8 146.418 329.701 147.921C332.856 148.822 336.237 150.4 337.138 153.78C337.589 155.808 337.138 157.837 336.913 159.865Z" fill="#36174D"/>
<path d="M319.785 202.233C325.883 202.233 330.828 197.289 330.828 191.19C330.828 185.091 325.883 180.147 319.785 180.147C313.686 180.147 308.742 185.091 308.742 191.19C308.742 197.289 313.686 202.233 319.785 202.233Z" fill="#F6B399"/>
<path d="M144.23 193.669C143.554 196.824 141.751 199.077 137.695 200.429C133.638 201.556 129.582 202.458 125.75 203.585C121.694 204.486 117.637 205.613 113.356 205.838C109.299 205.838 98.4816 204.035 95.1012 202.007C88.5657 198.401 88.1152 197.725 82.9319 192.316C80.9037 190.063 78.8752 184.654 77.0723 182.175C75.4948 184.654 64.0018 184.654 61.0721 181.724C58.1424 178.344 55.8883 174.288 54.9869 170.006C52.9586 161.217 56.3393 151.752 63.1001 145.667C67.1566 138.005 73.9175 132.596 81.8051 131.244C83.608 127.413 86.7628 124.258 90.594 122.68C91.6457 122.229 92.7725 121.854 93.9744 121.553C91.1198 114.342 87.7394 107.431 83.8332 100.82C81.3542 96.0875 78.1993 91.8056 75.4949 87.2984C73.2413 83.2419 71.8894 78.0586 74.5937 74.0022C77.0727 70.171 82.2559 69.4949 86.3123 70.6217C90.5942 71.5232 94.2001 74.4529 97.1298 77.6079C100.51 81.2137 103.214 85.2702 105.693 89.3266C108.397 93.8339 110.876 98.4913 113.13 103.299C118.088 113.666 125.525 127.187 129.807 138.005C133.413 146.794 137.694 155.132 140.624 164.146C142.652 171.358 144.004 178.795 144.681 186.232C144.681 188.936 144.906 191.415 144.23 193.669Z" fill="#F6B399"/>
<path d="M352.015 304.547C350.663 308.378 346.832 310.632 343 311.308C340.521 311.759 338.494 311.533 336.015 311.308C333.536 311.083 331.732 311.984 329.929 313.561C326.098 316.266 322.493 318.97 318.436 321.449C315.732 323.027 311.45 324.604 308.971 322.351C307.168 321.449 305.816 318.97 305.591 316.942C305.366 314.688 306.041 312.209 307.168 309.956C304.464 312.66 301.534 316.04 297.703 317.167C292.971 318.519 288.689 315.59 287.336 311.308C287.036 310.557 286.81 309.805 286.66 309.054C282.604 311.533 277.871 309.505 275.392 305.674C272.913 301.617 272.913 296.209 274.716 291.927C276.519 287.194 279.899 283.363 283.73 280.208C286.585 277.504 289.665 275.1 292.97 272.997C291.769 272.696 290.492 272.471 289.139 272.321C283.505 272.095 278.097 273.898 273.364 276.377C269.308 278.631 264.8 282.011 260.068 279.983C256.236 278.405 254.884 273.898 255.11 270.067C256.011 260.827 263.448 254.066 271.787 251.137C276.294 249.784 281.251 249.108 285.984 249.108C290.041 249.108 294.322 249.559 298.379 251.137C302.21 252.489 305.591 254.968 308.07 258.348C309.422 260.151 310.323 261.954 311.45 263.757C314.83 263.306 318.436 264.208 321.141 266.461C322.943 267.813 324.07 269.616 324.747 271.644C325.197 272.546 325.648 273.673 325.873 274.799C330.606 274.123 335.338 277.278 338.043 280.884C339.62 283.138 340.296 285.391 340.071 287.645C343 287.645 346.156 289.448 348.409 291.927C351.339 295.307 354.043 300.04 352.015 304.547Z" fill="#F6B399"/>
<path d="M339.169 368.999C339.394 357.055 338.718 341.956 337.591 331.59C336.389 330.989 335.187 330.313 333.985 329.561C325.647 324.153 322.943 314.913 321.14 305.448C315.506 300.039 310.548 293.954 305.59 288.095C303.336 285.391 301.083 282.686 298.829 279.757C297.026 277.278 295.449 273.897 295.674 270.517C295.899 266.911 298.153 263.981 301.308 262.404C300.707 262.103 300.106 261.878 299.505 261.728C297.702 260.826 299.28 258.347 300.857 259.024C310.322 263.305 319.562 267.587 328.126 272.996C338.493 279.306 347.958 285.841 356.071 295.081C363.958 304.096 370.043 314.237 374.776 325.054C380.936 339.627 386.72 354.276 392.128 368.999H339.169Z" fill="#F6B399"/>
<path d="M323.843 192.542C323.618 193.443 322.716 193.669 322.04 193.669C320.913 193.443 319.561 193.218 318.209 193.218C316.857 193.218 315.505 193.218 314.153 193.218C313.477 193.218 312.801 192.542 312.801 191.866C312.801 191.19 313.477 190.514 314.153 190.514C317.007 190.213 319.862 190.363 322.716 190.964C323.618 190.964 323.843 191.866 323.843 192.542Z" fill="#EE796A"/>
<path d="M278.545 203.81C273.362 205.162 267.728 206.514 262.545 204.035C261.868 203.584 261.643 202.683 262.094 202.007C262.319 201.331 263.221 201.105 263.897 201.556C268.179 203.584 273.362 202.232 277.869 201.105C279.447 200.654 280.348 203.359 278.545 203.81Z" fill="#EE796A"/>
<path d="M122.147 147.696C121.546 149.499 120.945 151.226 120.344 152.879C120.118 153.78 119.442 154.231 118.766 154.006C117.865 153.78 117.414 152.879 117.639 152.203L119.442 147.02C119.893 146.344 120.569 145.893 121.245 146.118C121.922 146.344 122.372 147.02 122.147 147.696Z" fill="#EE796A"/>
<path d="M117.862 154.231C114.257 151.752 110.426 149.498 106.144 148.372C99.3829 146.343 92.3963 147.019 86.5369 150.851C81.3536 154.231 77.2975 159.865 76.1707 165.95C75.9453 167.753 73.2411 167.077 73.4665 165.274C74.3679 161.443 75.9453 157.611 78.4243 154.456C82.7061 149.048 89.2414 145.442 96.2275 144.54C104.341 143.639 112.679 147.019 119.44 151.752C120.792 152.879 119.44 155.132 117.862 154.231Z" fill="#EE796A"/>
<path d="M99.3849 168.428C96.6806 169.33 95.3283 172.259 93.0747 174.062C90.8211 175.865 88.1167 176.992 85.1871 177.217C82.4827 177.668 79.1021 177.217 77.0739 175.189C74.5949 173.161 73.4682 169.555 73.2428 166.4C73.0175 164.597 75.9471 164.597 75.9471 166.4C76.1724 169.104 77.2991 172.485 79.7781 173.837C82.0317 174.738 84.7364 174.738 86.9901 174.288C89.469 173.612 91.4972 172.034 93.0747 170.006C94.6522 168.203 96.4551 166.625 98.7087 165.724C100.512 165.273 101.188 167.978 99.3849 168.428Z" fill="#EE796A"/>
<path d="M118.542 189.387C117.64 190.739 116.063 190.289 114.485 190.289C112.983 190.138 111.48 189.913 109.978 189.612C107.273 188.936 104.344 187.81 102.09 185.781C98.0337 182.176 96.4558 176.091 95.5544 170.908C95.1036 169.105 97.8084 168.203 98.2591 170.006C98.9352 174.513 100.062 179.471 103.217 183.077C104.794 184.88 107.048 186.007 109.302 186.457C110.504 186.908 111.78 187.209 113.133 187.359C113.734 187.359 114.335 187.359 114.936 187.359C115.161 187.584 115.612 187.584 116.513 187.584C116.964 186.908 118.091 186.908 118.542 188.035C118.767 188.486 118.992 188.936 118.542 189.387Z" fill="#EE796A"/>
<path d="M99.3836 134.85C98.7075 134.85 97.806 134.399 97.5806 133.723C96.3787 129.666 94.8009 125.76 92.8478 122.004C92.3971 121.328 92.6223 120.652 93.2984 120.201C93.9745 119.751 94.8763 119.976 95.327 120.652C97.2801 124.709 98.9327 128.84 100.285 133.047C100.51 133.723 100.06 134.624 99.3836 134.85Z" fill="#EE796A"/>
<path d="M94.427 122.681C88.3423 123.582 83.1591 127.639 80.4548 133.047C77.9758 138.23 77.7507 145.893 82.934 149.724C84.2861 150.625 82.9341 153.104 81.3565 151.977C78.8776 150.175 77.0742 147.47 76.3982 144.315C73.6938 133.047 82.7087 121.779 93.7514 119.976C95.5543 119.751 96.2299 122.455 94.427 122.681Z" fill="#EE796A"/>
<path d="M80.0019 132.821C76.6215 133.272 73.4662 134.624 70.7619 136.652C66.0293 140.258 63.5503 145.892 64.0011 151.751C64.4518 154.681 65.5789 157.386 67.1564 159.864C67.9076 160.916 68.8843 161.893 70.0862 162.794C70.7623 163.47 72.5652 165.048 73.4666 164.146C74.8188 162.794 76.8468 164.822 75.4947 166.175C72.3396 169.104 67.3817 164.597 65.3534 162.118C61.0716 156.484 59.9446 148.596 62.8743 142.061C66.0293 135.3 72.7903 130.793 80.0019 130.117C81.8048 129.891 81.8048 132.596 80.0019 132.821Z" fill="#EE796A"/>
<path d="M82.709 178.12C79.554 181.726 75.272 183.754 70.7648 184.205C62.2011 184.656 54.7646 178.345 53.1871 170.232C51.6096 161.443 55.6658 153.105 61.2998 146.57C62.4266 144.992 64.4551 147.02 63.3283 148.372C60.3987 151.753 58.1447 155.584 56.7926 159.641C54.539 166.401 55.6659 174.74 61.976 179.022C68.0607 182.853 75.9484 181.726 80.681 176.092C81.8078 174.74 83.8358 176.768 82.709 178.12Z" fill="#EE796A"/>
<path d="M98.2575 203.36C86.9895 202.684 80.2285 192.542 76.172 183.077C75.9467 182.401 75.9468 181.5 76.8482 181.049C77.299 180.824 78.4253 180.824 78.6507 181.725C82.2565 190.063 87.8909 199.979 98.2575 200.43C100.06 200.655 100.06 203.36 98.2575 203.36Z" fill="#EE796A"/>
<path d="M315.954 266.236C310.094 265.785 304.46 268.038 299.277 270.968C294.92 273.222 290.863 276.001 287.107 279.307C283.502 282.462 279.896 286.067 277.192 290.124C274.713 293.955 273.135 298.913 275.164 303.42C276.065 305.223 277.417 306.801 279.445 307.477C280.347 307.927 281.323 308.153 282.375 308.153C282.826 308.153 283.051 308.153 284.178 307.927C284.403 306.35 286.431 306.124 287.107 307.251C288.009 308.829 286.432 309.956 285.079 310.406C282.6 311.533 279.445 310.857 276.966 309.505C272.008 306.575 270.656 300.04 272.234 294.631C273.811 288.772 278.318 283.814 282.6 279.757C287.107 275.475 292.066 271.644 297.474 268.715C303.108 265.56 309.418 262.855 315.954 263.531C317.757 263.757 317.757 266.461 315.954 266.236Z" fill="#EE796A"/>
<path d="M326.096 276.602C320.838 279.006 315.729 281.786 310.772 284.941C306.565 287.645 302.509 290.725 298.602 294.18C296.649 295.833 294.846 297.561 293.194 299.364C291.391 301.167 289.813 302.97 288.687 305.223C287.785 307.477 287.559 310.181 288.912 312.435C290.038 314.012 291.842 314.914 293.644 315.139C298.828 315.815 302.884 312.209 306.49 309.28C307.842 308.153 309.87 309.956 308.518 311.083C304.011 314.914 298.602 318.97 292.292 317.618C290.038 317.167 288.01 316.04 286.658 314.012C285.081 311.759 284.855 308.829 285.531 306.35C286.658 300.941 291.616 296.659 295.672 293.054C304.236 285.166 314.152 278.856 324.744 274.349C326.322 273.673 327.899 275.926 326.096 276.602Z" fill="#EE796A"/>
<path d="M344.127 314.463C337.141 311.759 329.929 315.815 323.845 319.195C319.112 321.674 311.901 326.407 307.168 321.9C302.661 317.843 304.689 311.308 307.844 307.251C315.281 297.561 327 292.152 337.817 287.42C339.394 286.518 340.747 288.997 339.169 289.673C333.535 292.378 327.676 295.082 322.267 298.237C317.76 301.167 313.027 304.772 309.647 309.28C308.295 311.308 306.943 313.787 307.393 316.491C307.619 318.745 309.196 320.773 311.675 320.998C314.38 321.224 317.309 319.421 319.788 318.069C322.492 316.716 325.197 315.139 327.901 313.787C333.31 311.308 339.395 309.505 345.029 311.758C346.606 312.209 345.93 314.914 344.127 314.463Z" fill="#EE796A"/>
<path d="M333.085 209.896C333.085 217.783 329.028 225.671 322.943 231.305C316.183 237.164 307.168 240.545 297.703 241.446C292.971 241.897 288.012 241.672 283.505 240.77C281.252 240.32 278.998 239.418 277.646 237.841C273.815 234.009 277.871 231.756 281.252 229.953C293.421 223.192 314.38 211.473 326.774 204.713C330.155 202.91 333.31 202.008 333.085 209.896Z" fill="#3573C7"/>
<path d="M368.688 206.063C368.463 210.57 366.66 214.852 363.955 218.458C358.772 225.444 350.659 229.275 342.997 232.881C334.433 236.937 325.719 240.618 316.855 243.924C315.278 244.6 314.602 241.895 316.179 241.219C320.987 239.416 325.719 237.538 330.377 235.585C334.433 233.782 338.414 231.98 342.321 230.177C346.152 228.374 349.758 226.571 353.364 224.317C359.674 220.261 365.533 213.951 365.983 206.063C365.983 204.26 368.688 204.26 368.688 206.063Z" fill="#36174D"/>
<path d="M297.025 217.332C291.842 219.811 286.207 221.163 280.348 221.839L278.996 219.135C284.63 218.684 290.489 217.332 295.673 214.853C297.25 214.177 298.828 216.656 297.025 217.332Z" fill="#EE796A"/>
<path d="M340.518 139.808C339.842 141.386 338.264 142.062 336.687 142.062C335.936 142.062 335.184 142.062 334.433 142.062C333.532 141.837 332.856 141.836 332.18 141.16C331.729 140.71 331.729 140.034 331.955 139.358C331.729 138.907 331.729 138.456 332.18 138.005C331.729 137.555 331.504 137.104 331.504 136.653C331.654 135.151 332.255 133.874 333.306 132.822C333.757 132.146 334.208 131.695 334.884 131.47C335.786 130.794 337.138 131.47 337.589 132.597C337.814 133.273 337.588 134.174 337.363 134.85C338.264 134.85 339.166 135.301 339.842 135.752C340.969 136.879 341.194 138.456 340.518 139.808Z" fill="#36174D"/>
<path fill-rule="evenodd" clip-rule="evenodd" d="M285.757 199.754C278.771 199.754 273.137 193.894 273.137 186.908C273.137 179.922 278.771 174.288 285.757 174.288C292.743 174.288 298.603 179.922 298.603 186.908C298.603 193.894 292.743 199.754 285.757 199.754ZM285.757 176.992C280.348 176.992 276.067 181.5 276.067 186.908C276.067 192.542 280.348 196.824 285.757 196.824C291.391 196.824 295.673 192.542 295.673 186.908C295.673 181.5 291.391 176.992 285.757 176.992Z" fill="white"/>
<path d="M274.713 186.232C274.037 186.683 273.136 186.457 271.558 184.204C271.333 183.978 270.882 183.753 268.628 183.077C268.403 183.077 267.952 183.077 265.698 183.527C265.022 183.978 264.121 183.753 263.67 183.077C263.445 182.401 263.671 181.499 264.347 181.274C267.952 179.02 273.136 180.598 275.164 184.429C275.615 185.105 275.389 185.781 274.713 186.232Z" fill="white"/>
<path d="M292.743 321.224C288.536 323.327 284.33 325.355 280.123 327.308C278.546 328.21 276.968 325.731 278.771 325.055C281.175 323.853 283.578 322.651 285.982 321.449C284.63 321.449 283.278 321.449 281.926 321.449C280.574 321.449 278.771 321.674 277.644 320.998C276.292 320.548 275.841 319.195 276.067 318.069C276.517 316.491 277.644 315.364 278.546 314.238L281.475 310.181C282.527 308.829 283.579 307.402 284.63 305.899C279.898 308.153 275.391 310.632 271.109 313.336C269.982 314.012 268.855 312.885 269.08 311.759C269.681 306.801 270.358 301.843 271.109 296.885C267.503 301.242 264.498 306.049 262.094 311.308C261.644 311.984 260.291 312.209 259.841 311.533C257.136 308.378 254.507 305.148 251.953 301.843C253.005 305.448 254.357 308.979 256.01 312.435C256.686 314.012 254.207 315.364 253.531 313.787C250.826 307.927 248.948 301.843 247.897 295.533C247.446 293.955 249.474 293.054 250.376 294.406C253.381 299.213 256.761 303.721 260.517 307.927C263.447 302.068 267.503 296.434 272.01 291.701C273.137 290.575 274.489 291.701 274.489 293.054C273.738 298.462 272.911 303.946 272.01 309.505C277.419 306.35 282.602 303.42 288.236 301.392C289.363 301.167 290.715 302.519 289.814 303.42C286.509 307.927 283.278 312.435 280.123 316.942C279.672 317.393 279.222 317.843 279.898 318.519C281.25 318.67 282.602 318.745 283.954 318.745C286.659 318.745 289.363 318.745 292.067 318.745C293.42 318.745 294.095 320.773 292.743 321.224Z" fill="#36174D"/>
<path d="M159.939 129.939C161.718 128.083 164.27 127 166.977 127H190.023C195.514 127 200 131.486 200 136.977C200 139.683 198.84 142.236 197.061 144.014C195.282 145.793 192.808 146.953 189.946 146.953C188.554 148.809 186.466 150.279 184.455 151.516C183.991 151.748 183.527 151.129 183.914 150.743C184.919 149.66 185.615 148.345 185.925 146.953H166.977C161.486 146.953 157 142.468 157 136.977C157 134.192 158.16 131.718 159.939 129.939Z" fill="#3573C7"/>
<path d="M67.8338 105.553C67.8338 116.145 59.2701 124.934 48.6781 124.934H26.142C27.2689 128.765 28.846 132.596 32.0011 135.301C33.3533 136.202 31.7758 138.23 30.4237 137.554C26.1418 135.301 22.0854 132.371 18.705 128.765C17.5031 127.413 16.4511 125.986 15.5497 124.483C6.7606 122.906 0 115.018 0 105.553C0 94.9612 8.5637 86.3975 19.1556 86.3975H48.6781C59.2701 86.3975 67.8338 94.9612 67.8338 105.553Z" fill="#3573C7"/>
<path d="M251 38.2915C251 46.9026 247.556 55.0831 241.528 61.1108C236.792 65.8469 230.333 69.2914 223.014 70.1525C217.847 77.4719 210.097 83.0691 201.055 85.6524C198.472 86.5135 196.75 83.0691 198.473 81.3469C201.63 77.9025 204.07 74.171 205.792 70.1525H190.292C172.639 70.1525 158 55.9442 158 38.2915C158 29.2499 161.875 21.0693 167.472 15.4721C173.5 9.44435 181.68 6 190.292 6H218.708C236.361 6 251 20.2083 251 38.2915Z" fill="#4378C9"/>
<path d="M233.203 40.7677C231.782 42.1881 230.185 43.6084 228.409 45.0288C224.859 47.8696 221.484 50.7103 218.289 53.5511C216.691 54.6164 214.561 55.149 213.495 53.5511C212.43 52.4858 211.897 50.3553 213.495 48.7573C216.336 46.6268 219.176 44.3186 222.017 41.8329C223.437 40.4126 224.858 39.1698 226.278 38.1046C226.811 37.5719 227.876 37.0391 227.343 35.9739L225.213 33.8433L220.42 29.5823C217.224 27.0966 213.85 24.4334 210.299 21.5927C209.234 20.5274 209.234 17.8642 210.299 16.799C211.897 15.7337 214.028 15.7337 215.093 16.799C218.644 19.9948 222.372 23.013 226.278 25.8537C227.699 27.2741 229.297 28.6946 231.073 30.115C232.671 31.7129 234.801 32.7781 235.866 34.9087C236.399 37.5719 235.333 39.1698 233.203 40.7677Z" fill="white"/>
<path d="M175.797 29.7918C177.218 28.3714 178.815 26.9511 180.591 25.5308C184.141 22.69 187.516 19.8492 190.711 17.0085C192.309 15.9432 194.439 15.4106 195.505 17.0085C196.57 18.0738 197.103 20.2043 195.505 21.8022C192.664 23.9328 189.824 26.241 186.983 28.7266C185.563 30.147 184.142 31.3897 182.722 32.455C182.189 32.9877 181.124 33.5204 181.657 34.5857L183.787 36.7162L188.58 40.9773C191.776 43.4629 195.15 46.1261 198.701 48.9669C199.766 50.0322 199.766 52.6953 198.701 53.7606C197.103 54.8259 194.972 54.8259 193.907 53.7606C190.356 50.5648 186.628 47.5466 182.722 44.7058C181.301 43.2855 179.703 41.865 177.927 40.4446C176.329 38.8467 174.199 37.7814 173.134 35.6509C172.601 32.9877 173.667 31.3897 175.797 29.7918Z" fill="white"/>
<path fill-rule="evenodd" clip-rule="evenodd" d="M192.561 138.437C192.084 138.993 191.13 139.55 190.415 138.834C190.097 138.516 190.097 138.039 190.017 137.642C190.017 137.324 189.991 137.033 189.938 136.768C188.772 137.616 187.632 138.437 186.519 139.232C185.963 139.629 185.407 140.106 184.85 140.504C184.294 140.822 183.737 141.06 183.101 140.981C181.909 140.822 181.67 139.47 181.829 138.357C181.511 138.516 181.193 138.702 180.875 138.914C180.239 139.232 179.365 139.709 178.729 139.152C178.093 138.596 178.491 137.642 178.888 137.086C179.127 136.688 179.922 135.814 179.524 135.337C179.286 135.098 178.65 135.257 178.332 135.337C177.961 135.39 177.59 135.469 177.219 135.575C176.424 135.787 175.655 136.079 174.913 136.45C174.648 136.556 174.383 136.688 174.118 136.847C173.959 137.165 173.721 137.483 173.562 137.722C172.847 138.596 171.813 139.232 170.78 139.55C170.303 139.788 169.985 139.073 170.303 138.755C171.177 137.801 172.131 136.927 173.244 136.211C173.244 135.893 173.085 135.655 172.767 135.416C172.29 135.178 171.654 135.257 171.098 135.496C170.78 135.602 170.462 135.761 170.144 135.973C169.826 137.801 168.633 139.868 166.725 140.424C166.407 140.504 166.01 140.186 166.169 139.788C166.487 138.596 167.123 137.563 167.918 136.609C168.236 136.211 168.713 135.814 169.19 135.416C169.19 135.178 169.11 134.939 168.872 134.939C168.395 134.78 167.759 135.257 167.361 135.416C166.884 135.681 166.434 135.999 166.01 136.37C165.162 137.112 164.473 137.96 163.943 138.914C163.625 139.47 162.751 138.993 163.069 138.437C163.704 137.324 164.499 136.291 165.533 135.496C166.328 134.86 167.282 134.144 168.395 133.985C168.872 133.826 169.428 133.906 169.826 134.383C169.932 134.542 170.011 134.701 170.064 134.86C171.256 134.224 172.608 133.985 173.641 134.86C173.88 135.098 174.039 135.337 174.436 135.575C175.788 134.86 177.298 134.383 178.888 134.224C179.604 134.224 180.319 134.462 180.478 135.178C180.716 135.814 180.478 136.529 180.08 137.086C179.922 137.404 179.603 137.642 179.444 138.039C179.444 138.119 179.365 138.357 179.365 138.437C179.444 138.437 179.762 138.357 179.762 138.357C180.478 138.119 181.193 137.563 182.147 136.927C182.704 135.337 183.817 133.906 185.327 133.111C185.486 132.952 185.804 132.952 185.884 133.19C186.599 133.985 185.883 134.78 185.327 135.416C184.612 136.132 183.896 136.847 182.942 137.563C182.889 137.722 182.836 137.934 182.783 138.198C182.704 138.675 182.704 139.232 182.863 139.709C183.181 140.345 183.976 139.868 184.373 139.629C185.009 139.152 185.645 138.675 186.281 138.198C187.553 137.298 188.825 136.37 190.097 135.416C190.415 135.178 190.733 135.575 190.812 135.893C190.865 136.529 190.945 137.192 191.051 137.88C191.13 138.119 191.051 138.278 191.369 138.119C191.528 138.039 191.687 137.881 191.846 137.722C192.323 137.324 193.038 137.96 192.561 138.437ZM168.554 137.483C168.607 137.43 168.66 137.324 168.713 137.165C168.236 137.695 167.838 138.251 167.52 138.834C167.997 138.516 168.315 138.039 168.554 137.483Z" fill="white"/>
<path d="M16.4498 103.074H26.3655C28.1684 103.074 28.1684 106.004 26.3655 106.004H16.4498C14.6469 106.004 14.6469 103.074 16.4498 103.074Z" fill="white"/>
<path d="M31.9995 103.074H52.5076C54.3105 103.074 54.3105 106.004 52.5076 106.004H31.9995C30.422 106.004 30.422 103.074 31.9995 103.074Z" fill="white"/>
<path d="M53.1851 112.99H16.0006C14.1977 112.99 14.1977 110.286 16.0006 110.286H53.1851C54.988 110.286 54.988 112.99 53.1851 112.99Z" fill="white"/>
<path d="M124.624 30.0571C107.722 23.0709 88.1156 23.747 71.8896 32.7615C57.2412 41.0998 46.6495 55.7482 42.8183 72.4249C42.1423 75.8053 36.7338 74.2278 37.4099 70.8474C41.4664 53.0439 53.1848 37.0433 69.1854 28.0289C86.5382 18.3384 107.948 17.2116 126.202 24.6485C129.582 26.0006 128.005 31.4093 124.624 30.0571Z" fill="#87A9DF"/>
<path fill-rule="evenodd" clip-rule="evenodd" d="M434.044 119.3C433.594 147.02 412.41 167.302 389.874 180.148C386.719 181.95 384.014 176.993 387.169 175.19C407.452 163.696 427.284 145.893 428.41 120.878C429.312 101.947 417.142 83.9186 397.761 83.2425C397.31 90.4541 395.282 97.4402 391 102.849C384.465 110.736 369.141 109.61 369.817 97.2149C370.267 86.1722 381.761 79.4114 392.127 77.8339C391.451 55.9739 375.45 37.945 355.393 30.7335C332.632 22.6205 308.068 27.1278 286.884 37.269C283.503 38.8465 280.799 33.8886 283.954 32.5364C313.026 18.7894 348.858 14.9583 375.676 35.6914C385.817 43.5791 393.479 54.6217 396.409 67.2419C397.085 70.6223 397.536 74.0028 397.761 77.6085C406.325 78.0592 414.663 81.4396 421.198 87.0736C430.213 94.9613 434.27 107.581 434.044 119.3ZM392.127 83.4679C388.296 84.144 384.915 85.2708 381.76 87.5244C378.155 90.0033 373.422 95.6374 375.901 100.145C377.704 103.976 382.662 102.849 385.141 100.821C387.169 99.2431 388.747 96.5388 389.648 94.0598C391 90.6794 391.676 87.0737 392.127 83.4679Z" fill="#87A9DF"/>
<path d="M293.419 9.54962C292.743 10.4511 291.616 10.9018 290.715 11.1272C289.363 11.3525 288.236 11.1271 286.884 10.451C284.856 9.5496 283.504 7.07069 284.18 3.46492C284.631 2.263 285.456 1.36153 286.658 0.760569C287.56 0.084487 288.912 -0.140846 290.039 0.0845145C290.94 0.0845145 292.067 0.309861 292.743 0.985943C293.795 1.73715 294.471 2.63855 294.772 3.69023C295.448 5.71847 294.771 7.97209 293.419 9.54962Z" fill="#87A9DF"/>
<path d="M59.4954 89.7783C59.2701 91.8066 58.1435 93.6095 56.3406 94.5109C55.2889 94.9616 54.2375 95.0368 53.1858 94.7363C52.2843 94.5109 51.3827 93.8348 50.7066 93.1587C50.2559 92.4826 49.8052 91.5812 49.5798 90.6798C49.4296 89.4778 49.5797 88.351 50.0304 87.2993C51.6079 85.2711 54.0868 84.595 56.115 85.2711C58.1433 85.9472 59.4954 87.7501 59.4954 89.7783Z" fill="#FFBB4D"/>
<path d="M183.895 186.682C184.796 187.809 183.444 189.387 182.092 189.387C179.388 189.161 177.134 189.387 174.429 190.288C173.528 190.513 172.176 189.387 172.176 188.26C172.777 185.105 173.303 181.874 173.754 178.569C173.078 177.217 173.528 175.865 174.429 175.414C175.331 174.963 176.232 175.414 176.909 176.316L183.895 186.682Z" fill="#FFBB4D"/>
<path d="M143.328 55.7486C142.877 56.8754 141.75 57.7769 140.623 58.2276C139.271 58.8286 137.919 58.9037 136.567 58.453C133.863 57.7769 131.835 55.2979 132.06 52.3682C132.06 51.2414 132.736 49.8893 133.412 48.9878C133.412 48.5371 133.637 48.1615 134.088 47.861C136.567 45.8328 140.173 46.0582 142.426 48.3118C144.455 50.1147 144.68 53.2697 143.328 55.7486Z" fill="#87A9DF"/>
</svg>
